<svg width="416" height="474" viewBox="0 0 416 474" fill="none" xmlns="http://www.w3.org/2000/svg">
<path fill-rule="evenodd" clip-rule="evenodd" d="M22.4267 7.23303C21.8619 8.14657 21.7133 14.2846 21.9862 25.4485C22.7153 55.2758 22.8542 65.1029 22.6996 75.8763C22.4952 90.0902 22.0621 109.919 21.8327 115.545L21.6619 119.739H20.3515C19.6307 119.739 17.9597 119.927 16.638 120.158C12.2866 120.916 0.771964 123.554 0.374976 123.883C-0.137009 124.308 -0.121879 125.357 0.403037 125.792C0.733723 126.067 1.40143 126.072 3.63563 125.819C5.18424 125.644 7.13891 125.34 7.97938 125.143L9.50764 124.786L9.40557 128.794C9.34945 130.998 9.25948 132.94 9.20583 133.111C9.15246 133.281 8.53265 133.506 7.82864 133.612C6.23793 133.85 5.34518 134.633 5.76665 135.42C5.99362 135.844 6.3441 135.964 7.35487 135.963C8.99124 135.963 16.7874 134.968 19.3055 134.438C20.3507 134.219 21.2594 134.039 21.3251 134.039C21.3909 134.039 21.4462 136.854 21.4478 140.295C21.4508 146.567 21.6932 148.55 22.589 149.629C22.8374 149.928 22.8223 150.103 22.5216 150.396C21.8302 151.07 18.0562 152.958 16.2176 153.549C13.6894 154.363 13.5625 154.465 13.9708 155.361C14.2046 155.874 14.2272 156.359 14.0451 156.961C13.3455 159.276 13.1914 162.502 13.1914 174.852V187.881L9.82127 187.995C7.96783 188.058 6.42528 188.097 6.39391 188.081C6.36227 188.066 6.46901 186.45 6.63105 184.49C6.92707 180.906 6.88691 177.177 6.32348 155.901C6.00655 143.94 5.62111 135.805 5.33555 135.061C5.08382 134.405 4.47004 134.471 4.0824 135.195C3.55886 136.173 3.29612 148.322 3.57206 158.789C3.70962 164.007 3.82573 169.673 3.82986 171.38L3.83756 174.483L3.74099 175.566C3.76355 175.565 3.77125 176.894 3.75805 178.52C3.74347 180.268 3.94705 182.74 4.25573 184.568C4.67858 187.073 4.71875 187.881 4.46729 188.822C3.83756 191.18 4.98726 191.694 9.61466 191.125C11.3509 190.912 12.866 190.795 12.9815 190.866C13.0968 190.938 13.1933 192.257 13.1958 193.799C13.2002 196.781 13.7031 199.568 14.3538 200.218C14.5711 200.436 15.9772 200.86 17.4779 201.161C25.3729 202.746 30.1331 207.563 31.7236 215.576C32.4136 219.052 32.5932 221.947 32.1525 222.478C31.8292 222.867 31.8974 223.03 32.6694 223.72C33.459 224.425 33.7613 224.514 35.3724 224.514C36.37 224.514 39.1005 224.316 41.4397 224.075C43.779 223.833 45.7334 223.678 45.7829 223.731C45.8325 223.783 45.6292 224.754 45.3312 225.889C44.6112 228.63 44.7524 233.921 45.6173 236.614C46.663 239.869 48.834 242.389 50.5925 242.389C52.3634 242.389 52.4058 241.101 50.7061 238.931C48.3167 235.88 47.5805 233.094 47.5805 227.102C47.5805 223.465 47.5891 223.414 48.1995 223.399C48.5399 223.39 51.666 223.101 55.1462 222.757C58.6263 222.412 61.5134 222.159 61.5615 222.195C61.6097 222.231 61.5037 223.255 61.3257 224.472C60.8107 227.993 61.0894 232.718 61.9797 235.551C63.1924 239.41 64.9625 241.251 66.2992 240.041C67.0363 239.375 66.9865 238.969 65.886 236.674C64.4012 233.577 64.089 232.158 63.7643 227.028C63.5291 223.31 63.5363 222.209 63.7965 222.048C63.9806 221.935 65.3281 221.758 66.7914 221.656C68.2547 221.553 72.7327 221.108 76.7425 220.665C80.7523 220.223 90.223 219.234 97.7887 218.468C105.354 217.701 117.239 216.458 124.2 215.705C157.499 212.102 165.13 211.299 165.218 211.386C165.269 211.438 164.99 212.402 164.597 213.528C163.929 215.443 163.893 215.8 164.042 219.014C164.284 224.263 165.16 226.853 168.019 230.774C169.424 232.702 169.726 233.329 170.009 234.899C170.252 236.252 170.363 244.536 170.421 265.626C170.465 281.508 170.634 300.256 170.798 307.289C170.961 314.322 171.223 328.182 171.381 338.089C171.796 364.321 172.605 398.02 173.044 407.357C173.189 410.44 173.307 414.464 173.307 416.298V419.634L172.338 421.072C171.805 421.863 171.239 422.852 171.079 423.268C170.525 424.719 169.969 434.114 169.993 441.626C170.014 448.012 170.103 452.012 170.244 452.847C170.342 453.43 172.752 453.923 179.269 454.693C183.177 455.155 187.203 455.661 188.215 455.817C190.173 456.119 190.978 455.917 191.664 454.953C191.926 454.583 192.272 454.51 193.24 454.62C194.705 454.785 194.975 454.634 198.014 451.952L200.179 450.042L201.912 450.741C204.473 451.775 209.892 452.65 218.701 453.451C223.013 453.843 229.389 454.467 232.869 454.838C249.081 456.567 252.339 456.88 264.232 457.857C266.956 458.081 271.289 458.444 273.861 458.665C276.433 458.886 281.138 459.257 284.315 459.489C287.493 459.722 293.435 460.165 297.521 460.475C301.606 460.784 308.168 461.28 312.102 461.576C321.38 462.276 328.001 462.816 335.486 463.485C338.815 463.783 343.705 464.219 346.353 464.455C349.001 464.691 353.334 465.185 355.982 465.552C358.63 465.918 364.697 466.723 369.463 467.341C374.229 467.958 382.214 469.011 387.208 469.682C395.314 470.77 409.042 472.481 413.687 472.982L415.407 473.168V469.125L410.386 468.509C404.822 467.827 396.663 466.762 385.832 465.306C379.616 464.47 368.564 463.153 359.009 462.109C357.42 461.936 355.129 461.675 353.919 461.53C341.604 460.052 325.196 458.612 294.632 456.327C280.565 455.275 253.229 453.057 247.44 452.497C244.056 452.17 241.531 451.904 231.906 450.86C222.135 449.8 215.104 449.246 208.934 449.05C200.401 448.779 199.465 448.617 200.493 447.589C201.459 446.624 201.641 445.192 201.642 438.551C201.644 431.774 200.768 408.92 200.242 402.026C200.069 399.758 199.849 396.797 199.754 395.448C199.453 391.198 199.022 392.293 198.602 398.375C197.868 408.987 198.065 443.385 198.877 446.576C199.087 447.402 199.072 447.731 198.818 447.897C198.632 448.019 197.861 448.482 197.104 448.925C196.348 449.369 195.338 450.05 194.861 450.438L193.993 451.143L194.004 447.897C194.023 441.887 193.616 432.842 193.234 430.801C192.823 428.606 192.5 428.014 191.716 428.014C190.582 428.014 190.5 428.766 190.532 438.876C190.56 447.602 190.685 449.697 191.333 452.278C191.515 453.003 191.502 453.011 190.597 452.751C189.177 452.344 177.654 451.114 175.256 451.114H173.121L172.945 438.275C172.848 431.213 172.825 425.379 172.895 425.31C172.964 425.241 174.415 425.45 176.121 425.775C177.827 426.1 181.247 426.503 183.723 426.671C188.115 426.968 188.238 426.962 188.793 426.406C189.27 425.93 189.313 425.728 189.057 425.166C188.644 424.262 187.458 424.121 179.79 424.069C176.401 424.045 173.553 423.951 173.46 423.858C173.368 423.766 173.717 422.803 174.237 421.718C175.015 420.097 175.217 419.295 175.372 417.211C175.553 414.798 175.254 392.323 174.678 364.901C174.532 357.944 174.227 342.97 174 331.626C173.773 320.283 173.462 306.546 173.309 301.101C172.661 278.011 172.48 267.844 172.476 254.214C172.473 241.334 172.271 235.65 171.759 234.03C171.617 233.583 171.687 233.54 172.244 233.727C172.602 233.847 174.33 233.999 176.084 234.064C181.014 234.248 185.784 233.262 186.62 231.886C187.066 231.15 186.126 230.362 184.366 229.996C183.053 229.724 182.272 229.768 178.963 230.302C176.836 230.645 174.616 231.092 174.029 231.295C172.446 231.843 172.017 231.768 171.802 230.908C171.698 230.491 171.007 229.099 170.265 227.814C169.524 226.528 168.512 224.424 168.017 223.139C167.12 220.81 167.117 220.785 167.143 216.054C167.158 213.444 167.229 211.247 167.303 211.174C167.377 211.1 171.017 210.668 175.393 210.212C179.769 209.756 183.628 209.32 183.968 209.243C184.308 209.166 184.587 209.154 184.587 209.217C184.587 209.279 184.385 210.302 184.139 211.491C183.317 215.452 183.965 222.32 185.421 225.094C186.198 226.573 187.409 227.843 187.964 227.76C188.889 227.621 189.154 226.893 188.765 225.557C186.973 219.394 186.788 218.268 186.788 213.516V208.902L188.232 208.731C189.027 208.636 191.657 208.374 194.078 208.147C196.499 207.921 202.875 207.242 208.247 206.64C213.618 206.038 223.77 204.926 230.806 204.17C237.842 203.415 247.932 202.309 253.228 201.713C258.523 201.117 265.333 200.367 268.359 200.045C271.385 199.724 278.875 198.901 285.003 198.217C291.131 197.534 297.198 196.86 298.484 196.721C299.77 196.582 306.269 195.85 312.927 195.095C319.585 194.339 331.222 193.037 338.788 192.201C346.353 191.364 359.971 189.82 369.05 188.769C378.129 187.719 387.29 186.664 389.409 186.426C396.971 185.577 407.083 184.365 411.143 183.821C413.412 183.517 415.3 183.267 415.338 183.266C415.376 183.265 415.407 182.521 415.407 181.614C415.407 179.67 415.907 179.793 410.374 180.374C399.645 181.501 381.926 183.418 364.511 185.335C355.659 186.309 344.331 187.539 339.338 188.067C334.345 188.595 321.965 189.963 311.827 191.106C292.778 193.255 283.955 194.235 270.972 195.644C266.811 196.096 254.988 197.394 244.699 198.528C234.41 199.663 223.701 200.84 220.902 201.143C218.102 201.447 213.708 201.937 211.135 202.232C208.563 202.527 204.106 203.019 201.231 203.325C188.755 204.652 165.73 207.16 128.051 211.297C112.92 212.959 98.6828 214.512 96.4131 214.75C94.1434 214.988 87.8296 215.672 82.3824 216.27C68.7882 217.764 50.0029 219.761 44.6919 220.277C42.2709 220.513 39.2377 220.865 37.9516 221.061C36.6654 221.256 35.5375 221.374 35.445 221.323C35.3529 221.271 35.4522 220.576 35.6659 219.777C36.4176 216.972 35.4233 211.723 33.3338 207.464C32.0733 204.895 29.0184 201.714 26.2593 200.097C24.1929 198.885 20.1069 197.564 18.4298 197.564H17.4023L17.2353 179.62C17.0787 162.793 17.0331 161.534 16.5054 159.39C16.1959 158.133 15.9425 157.005 15.9425 156.883C15.9425 156.762 16.7899 156.602 17.8254 156.528C19.2356 156.427 20.2277 156.144 21.776 155.399C27.67 152.566 31.9692 147.103 33.6915 140.26C34.4997 137.048 34.5193 136.502 33.9173 134.009C33.6653 132.966 33.5107 132.063 33.5734 132.004C33.6362 131.944 35.3586 131.688 37.4014 131.434C42.1429 130.846 57.8733 128.241 71.6518 125.761C77.5525 124.699 90.0563 122.47 99.4382 120.806C127.144 115.895 136.875 114.15 151.986 111.383C159.854 109.943 170.192 108.071 174.958 107.224C179.724 106.376 186.905 105.077 190.914 104.337C194.924 103.597 205.2 101.74 213.749 100.209C232.511 96.85 255.264 92.7333 270.56 89.9299C292.073 85.987 312.154 82.2973 322.556 80.3761C371.34 71.3666 386.065 68.671 395.186 67.0804C410.095 64.4806 413.311 63.7351 414.339 62.6417C415.121 61.8098 414.865 60.7978 413.756 60.3388C412.71 59.9057 412.107 59.9832 401.926 61.8563C397.463 62.6777 384.34 65.0762 372.764 67.1863C361.189 69.2964 348.066 71.7079 343.602 72.5452C339.139 73.3826 328.368 75.3687 319.667 76.9587C310.967 78.5485 299.206 80.7114 293.532 81.7649C278.774 84.505 248.316 90.0955 220.902 95.0958C201.798 98.5803 172.821 103.928 158.726 106.569C153.052 107.633 144.448 109.242 139.606 110.144C134.764 111.046 127.893 112.327 124.337 112.99C120.781 113.652 111.434 115.386 103.566 116.843C84.825 120.312 66.1856 123.829 57.6222 125.512C53.8394 126.255 47.2779 127.492 43.0412 128.261C38.8044 129.03 34.9721 129.732 34.525 129.821C34.0777 129.91 33.0873 130.319 32.3241 130.731L30.9362 131.479L30.7786 134.753C30.5477 139.544 29.3879 142.952 26.8414 146.321C25.5311 148.055 23.6903 149.85 23.4589 149.619C23.3879 149.548 23.5257 149.112 23.7648 148.649C24.5016 147.225 24.7591 142.48 25.5726 115.339C25.7154 110.574 25.8353 105.903 25.8395 104.958L25.8466 103.239H28.9532C31.1202 103.239 33.1319 103.033 35.604 102.558C39.2311 101.862 39.9624 101.564 39.4061 101.008C38.7632 100.365 36.6206 100.473 31.4864 101.408C28.6115 101.931 26.1974 102.321 26.1217 102.275C26.0461 102.23 26.0807 95.3427 26.1987 86.9715C26.4087 72.0879 26.1732 53.9115 25.5652 38.0828C25.4116 34.0851 25.3811 30.7331 25.4975 30.6341C25.6139 30.5351 27.1041 30.1862 28.8093 29.8589C32.3346 29.1821 37.2839 27.6408 38.9123 26.7124C40.1316 26.0172 40.5404 25.1388 39.6446 25.1388C39.3431 25.1388 36.1053 26.1288 32.4493 27.3388C28.7933 28.5488 25.6455 29.5388 25.4538 29.5388C25.1943 29.5388 25.062 28.4006 24.9341 25.0701C24.69 18.722 24.2067 10.4153 23.978 8.63883C23.8152 7.37328 23.6864 7.11258 23.1901 7.0419C22.8641 6.99543 22.5205 7.0815 22.4267 7.23303ZM11.4926 124.408C11.746 124.405 13.9961 123.92 16.4928 123.33C18.9894 122.74 21.201 122.247 21.4074 122.236C21.7174 122.218 21.748 122.99 21.5832 126.683C21.4734 129.141 21.3664 131.157 21.3455 131.165C21.0112 131.282 11.442 132.928 11.3996 132.875C11.3669 132.835 11.2708 130.914 11.1861 128.608C11.0463 124.809 11.0752 124.413 11.4926 124.408Z" fill="#2C2C28"/>
<path fill-rule="evenodd" clip-rule="evenodd" d="M355.995 7.78247C355.98 3.10665 356.292 1.00153 357.096 0.333826C357.793 -0.243949 358.281 -0.0789495 358.727 0.885201C359.232 1.97585 359.696 9.53918 359.696 16.6707C359.696 22.773 359.709 22.9124 360.247 22.7917C362.723 22.2362 363.445 22.1265 364.662 22.1204C365.426 22.1168 366.2 22.2623 366.382 22.4438C366.893 22.9545 366.772 23.9654 366.149 24.4018C365.591 24.7923 365.593 24.8036 366.385 25.595C367.75 26.9596 368.142 30.6792 367.42 35.4332C367.056 37.832 366.642 38.6138 365.739 38.6138C365.112 38.6138 364.504 37.5782 364.216 36.0197C363.786 33.693 363.782 27.962 364.209 26.7016C364.405 26.1244 364.519 25.6052 364.462 25.548C364.404 25.4908 363.046 25.7955 361.444 26.2253C359.841 26.6552 353.778 28.1465 347.971 29.5396C342.164 30.9328 332.584 33.2428 326.683 34.6733C317.212 36.9688 310.597 38.5456 290.093 43.395C281.406 45.4492 265.714 49.0102 263.975 49.3215C261.64 49.7398 261.13 49.6933 260.775 49.0303C260.519 48.5526 260.558 48.3513 260.991 47.919C261.545 47.3654 265.67 46.1153 272.167 44.5318C274.262 44.0211 276.011 43.5638 276.053 43.5149C276.095 43.4662 276.029 39.6519 275.908 35.0388C275.331 13.2002 275.29 8.80492 275.64 6.34945C275.877 4.69753 276.118 3.87253 276.396 3.76555C276.621 3.6792 276.9 3.76253 277.017 3.95035C277.474 4.69093 277.859 9.53587 278.311 20.2691C278.813 32.1893 278.654 38.2593 277.749 41.6385C277.527 42.4701 277.369 43.1744 277.398 43.2038C277.427 43.233 281.348 42.2867 286.11 41.1012C290.873 39.9157 299.343 37.8199 304.933 36.4443C310.523 35.0685 315.195 33.8442 315.316 33.7235C315.436 33.603 315.427 33.1265 315.294 32.665C314.982 31.5777 314.782 8.42075 315.078 7.60757C315.441 6.60905 316.29 6.8296 316.665 8.02007C317.112 9.43632 317.363 30.66 316.951 32.151C316.789 32.7393 316.699 33.2634 316.752 33.3162C316.826 33.3899 320.455 32.591 320.678 32.4516C320.705 32.4354 320.56 31.7047 320.356 30.8283C319.618 27.6573 319.307 22.1815 319.485 15.5138C319.723 6.62363 320.122 4.03313 321.103 5.01405C321.346 5.25715 321.514 8.36218 321.711 16.2753C321.861 22.2846 321.975 28.292 321.965 29.6252L321.945 32.0493L322.979 31.8747C323.548 31.7784 329.256 30.4056 335.665 28.8235C342.073 27.2415 349.462 25.4306 352.085 24.7989L356.854 23.6508L356.692 22.8137C356.44 21.4978 356.008 12.2138 355.995 7.78247ZM148.207 21.7013C148.22 7.36227 148.45 2.1315 149.098 1.35105C149.668 0.663551 150.557 0.969626 151.094 2.03883C151.543 2.93258 151.574 4.36642 151.528 22.1138C151.493 35.1298 151.586 42.7176 151.819 45.9013C152.007 48.4726 152.179 54.2269 152.2 58.6888C152.232 65.3248 152.166 66.9509 151.835 67.623C150.937 69.4512 149.477 68.5041 149.086 65.8388C148.698 63.1925 148.191 37.7621 148.207 21.7013ZM282.583 27.1229C282.504 14.0307 282.764 3.31813 283.178 2.6485C283.433 2.236 283.811 2.21758 284.051 2.60643C284.151 2.7673 284.419 4.40685 284.647 6.25017C285.14 10.2294 285.309 37.6329 284.853 39.6855C284.521 41.1829 283.85 41.7034 283.151 41.0058C282.702 40.5564 282.659 39.5054 282.583 27.1229ZM266.552 28.9888C266.44 22.5607 266.254 14.4862 266.14 11.0451C265.992 6.55488 266.018 4.78883 266.236 4.78883C266.74 4.78883 266.871 5.23295 267.278 8.3025C269.055 21.7299 269.652 39.017 268.404 40.9205C267.86 41.751 267.272 41.8481 266.968 41.1576C266.852 40.8927 266.665 35.4169 266.552 28.9888ZM77.5756 82.7345C76.5398 75.6695 75.9076 6.91183 76.8644 5.36413C77.347 4.58368 77.7695 5.71118 77.9626 8.29535C78.5583 16.2632 78.6719 21.2676 78.8257 46.3138C78.9795 71.3207 78.7974 84.2267 78.2834 84.7404C77.9877 85.0357 77.8601 84.6738 77.5756 82.7345ZM84.9973 47.1388C84.6947 36.3456 84.6209 6.70173 84.8941 5.68258C85.1035 4.90213 85.7062 4.88535 86.1148 5.64848C86.322 6.03513 86.5602 11.1325 86.8183 20.7047C87.1968 34.7407 87.3894 40.9736 88.0599 60.8888C88.3947 70.8262 88.2599 81.9835 87.7825 83.8436C87.6285 84.4442 87.5366 84.9703 87.5787 85.0121C87.6205 85.0539 88.7369 84.81 90.0596 84.4698L92.4644 83.8513L92.3092 82.7513C91.6069 77.768 90.4362 14.6737 90.9623 10.1549C91.1295 8.7172 91.2985 8.21175 91.6327 8.14768C91.8784 8.10038 92.1675 8.28435 92.2751 8.5566C92.5131 9.15912 93.2309 21.7497 93.2416 25.512C93.2487 27.9831 93.2919 28.2053 93.7307 28.0271C96.0018 27.1045 103.15 24.946 107.418 23.8936C110.293 23.1849 112.8 22.4793 112.989 22.3258C113.246 22.1171 113.341 20.2994 113.365 15.1365C113.4 7.69805 113.504 6.6305 114.202 6.49575C115.105 6.32195 115.352 8.12925 115.374 15.1013C115.394 21.1818 115.353 21.7866 114.846 22.7834C114.543 23.3788 113.986 24.0911 113.608 24.3666C112.965 24.8344 94.9176 29.5388 93.7654 29.5388C93.3038 29.5388 93.2493 29.7706 93.2493 31.7388C93.2493 32.9488 93.3472 33.9388 93.4672 33.9388C93.5869 33.9388 95.3511 33.3781 97.3875 32.6925C101.356 31.3568 109.885 28.9682 112.728 28.3965C114.735 27.9928 115.156 28.1484 115.877 29.5594C116.313 30.4128 116.358 31.6093 116.358 42.2829C116.359 48.7627 116.489 58.2914 116.648 63.4579C116.837 69.6055 116.845 73.659 116.671 75.1888C116.524 76.4744 116.443 77.5645 116.49 77.6116C116.537 77.6583 118.724 77.141 121.35 76.4618C123.976 75.7823 127.178 75.0219 128.464 74.7719C129.75 74.5219 134.475 73.5234 138.964 72.5529C143.453 71.5825 147.325 70.865 147.569 70.9585C148.305 71.2409 148.588 72.0478 148.228 72.8387C147.794 73.7891 146.491 74.1691 134.534 76.8289C122.115 79.5916 119.724 80.152 99.8022 84.9675C82.3974 89.1748 74.2027 90.9474 72.7935 90.8102C72.2307 90.7555 71.9006 90.558 71.8403 90.2398C71.7121 89.5631 72.7438 89.1792 79.4554 87.4054C82.5782 86.5799 85.454 85.7763 85.8457 85.6193L86.5583 85.3336L86.1761 83.9049C85.898 82.8643 85.7244 79.0413 85.5365 69.8263C85.3948 62.8688 85.1522 52.6594 84.9973 47.1388ZM118.53 19.1111C118.161 16.3732 118.355 7.85287 118.82 6.3533C119.051 5.60833 119.279 5.33085 119.609 5.3941C120.071 5.48238 120.211 7.7228 120.447 18.8405L120.485 20.6547L125.369 19.1776C128.055 18.3653 132.852 16.8412 136.029 15.7907C142.77 13.5627 144.05 13.2434 144.747 13.6163C146.097 14.3387 144.688 15.8485 141.567 17.0227C136.916 18.7728 122.564 22.6638 120.761 22.6638C119.322 22.6638 118.923 22.0275 118.53 19.1111ZM125.125 25.0307C132.268 22.6773 134.012 22.1586 139.606 20.7229C145.726 19.1523 146.429 19.0891 147.06 20.0527C147.415 20.5942 147.441 20.8263 147.183 21.137C146.768 21.6367 143.621 22.6723 139.193 23.766C137.302 24.2332 134.083 25.124 132.04 25.7455C129.998 26.367 126.779 27.2654 124.887 27.7422L121.448 28.609L121.353 30.655C121.301 31.7806 121.397 34.8051 121.566 37.3763C122.014 44.1537 122.429 64.4231 122.225 69.5059C122.083 73.0103 121.958 73.973 121.582 74.4372L121.114 75.0145L120.602 74.2329C119.938 73.2198 119.75 67.5215 119.618 44.4881C119.527 28.3951 119.545 27.6504 120.035 27.1067C120.35 26.7577 122.314 25.9567 125.125 25.0307ZM102.628 33.4342C105.414 32.6669 108.931 31.7355 110.444 31.3643C112.593 30.837 113.547 30.5511 113.968 30.9027C114.345 31.2175 114.295 32.0432 114.294 33.6638C114.293 35.2519 114.183 41.6328 114.05 47.8436C113.803 59.3029 114.079 69.43 114.765 74.0888C114.932 75.2232 115.08 76.5839 115.095 77.1127L115.121 78.0741L105.217 80.608C99.7695 82.0017 94.9836 83.2161 94.5814 83.3065C93.8595 83.4693 93.8532 83.4578 94.0933 82.4238C94.594 80.2675 94.1902 51.0925 93.4639 36.9759L93.3869 35.4758L95.4749 35.1524C96.6235 34.9747 99.8424 34.2014 102.628 33.4342ZM39.9464 52.3638C39.6597 51.7918 39.6853 33.3795 39.9737 32.7013C40.2003 32.1684 40.2152 32.1708 40.4515 32.7841C41.2169 34.7701 41.7316 44.9757 41.2392 48.4044C41.0461 49.7502 40.8771 51.2226 40.8639 51.6763C40.8419 52.4488 40.9016 52.4983 41.8015 52.4535C42.3303 52.4271 45.1513 51.6331 48.0708 50.6888C52.6729 49.2002 53.5117 49.0055 54.3791 49.2241C55.9426 49.6182 55.8026 50.0879 53.8589 50.9687C49.6411 52.8805 42.4659 54.6191 36.8511 55.0902C33.8004 55.3462 31.3811 55.7889 29.9015 56.3623C29.5392 56.5026 29.4577 56.4432 29.5793 56.1269C29.8622 55.3902 32.1869 54.519 36.2324 53.634C39.4636 52.9273 40.1167 52.7037 39.9464 52.3638ZM356.12 41.1006C360.205 40.0567 363.857 39.149 364.236 39.0832C365.687 38.8308 366.155 38.9092 366.871 39.5252C367.866 40.381 367.512 41.0115 365.42 42.1085C360.217 44.8365 344.455 48.3782 306.324 55.3874C286.141 59.0975 277.798 60.8522 268.496 63.3443C263.242 64.752 262.834 64.815 262.317 64.2977C261.813 63.7936 261.809 63.7598 262.192 63.0448C262.567 62.3444 264.016 61.7023 269.034 60.0127C275.141 57.9565 286.853 55.2813 303.711 52.0921C328.997 47.3088 344.765 44.0016 356.12 41.1006ZM257.733 60.7092C257.277 58.8797 257.082 50.2444 257.486 49.7585C257.952 49.1966 258.682 49.2285 259.231 49.8349C259.818 50.4825 260.484 55.3275 260.581 59.6513L260.656 62.9513L259.959 63.0324C259.06 63.1372 258.084 62.1181 257.733 60.7092ZM37.4014 68.31C42.6417 66.2829 45.9043 65.2135 48.681 64.6131C50.7168 64.1729 51.2013 64.1833 51.3639 64.6712C51.4962 65.0688 48.7894 66.3575 45.6008 67.4143L43.4838 68.1161L43.294 69.6341C43.0844 71.3113 43.2271 73.7187 43.9218 80.2133C44.3488 84.2066 44.3504 84.5856 43.9411 84.9948C42.7391 86.196 42.1839 84.6587 41.763 78.964C41.429 74.4411 41.6857 71.6177 42.6241 69.4974C43.1155 68.387 43.121 68.2951 42.6888 68.4332C42.4644 68.5048 40.6616 69.0832 38.47 69.7863L37.4014 70.1291C33.4527 71.396 32.1294 71.6999 30.0421 71.8187C28.3584 71.9147 27.4973 71.8663 27.4973 71.6754C27.4973 71.517 28.0236 71.3058 28.6665 71.2066C30.3549 70.9459 31.9874 70.4044 37.4014 68.31ZM150.406 80.1286C150.474 76.2916 150.849 72.1173 151.174 71.5924C151.397 71.2305 152.007 71.2791 152.344 71.6859C152.511 71.8866 152.716 74.5514 152.831 77.9971L153.029 83.961L154.158 84.0438C155.206 84.1203 155.293 84.1896 155.372 85.003C155.437 85.6737 155.308 85.9754 154.822 86.2859C154.22 86.6703 149.296 87.8281 137.818 90.2838C131.331 91.6715 119.155 94.4548 108.243 97.0442C91.9326 100.915 85.2477 102.267 78.1316 103.138C73.836 103.664 72.5404 103.515 72.3908 102.476C72.284 101.737 72.7561 101.522 75.7796 100.929C83.671 99.3822 91.4443 97.6569 100.677 95.403C115.219 91.8535 135.556 87.2201 149.372 84.3089L150.335 84.1062L150.406 80.1286ZM155.927 80.564C155.636 76.7728 155.888 73.6194 156.544 72.8285C157.467 71.7169 158.108 73.0752 158.443 76.8498C159.009 83.2441 158.735 85.3638 157.345 85.3638C156.498 85.3638 156.224 84.4384 155.927 80.564ZM386.145 75.7242C391.158 74.8173 396.358 73.8993 397.699 73.6846C401.24 73.117 403.027 73.4417 403.027 74.6523C403.027 75.7391 400.571 76.4574 390.922 78.1926C378.229 80.4751 363.386 83.1061 350.48 85.3602C344.503 86.4041 332.928 88.4468 324.757 89.8997C316.586 91.3522 305.63 93.2819 300.409 94.188C295.189 95.0939 282.623 97.3104 272.485 99.1133C255.907 102.062 228.305 106.922 197.655 112.29C191.602 113.349 170.128 117.135 149.934 120.701C129.739 124.268 107.084 128.23 99.5879 129.507C92.0919 130.784 79.3974 132.95 71.3778 134.321C56.8579 136.803 49.4981 137.946 45.7461 138.303C42.9383 138.569 41.7514 138.102 43.3686 137.365C44.0836 137.039 60.348 134.03 89.5353 128.823C97.2522 127.447 104.804 126.078 106.317 125.781C110.977 124.869 167.71 114.661 198.755 109.149C206.775 107.725 216.864 105.933 221.177 105.167C228.947 103.787 238.131 102.143 266.571 97.0411C274.666 95.5891 288.531 93.1177 297.383 91.5491C314.207 88.5676 327.482 86.1861 334.936 84.8122C337.357 84.3658 342.866 83.3874 347.179 82.6375C357.98 80.7592 375.236 77.6979 386.145 75.7242ZM68.9051 95.5127C68.9026 92.7445 68.9998 91.6561 69.2793 91.3189C69.487 91.0687 69.7569 90.8638 69.8788 90.8638C70.9129 90.8638 71.7919 94.8777 71.791 99.5951L71.7905 102.689H70.9847C69.2856 102.689 68.9101 101.393 68.9051 95.5127ZM317.255 107.435C317.939 106.706 320.206 105.809 322.694 105.284C323.763 105.058 325.587 104.944 327.233 105C333.326 105.205 336.672 108.067 336.947 113.31C337.086 115.943 336.623 117.642 335.186 119.777C334.67 120.543 334.248 121.197 334.248 121.23C334.248 121.263 334.863 121.568 335.614 121.908C337.682 122.842 339.594 124.716 340.634 126.827C341.446 128.476 341.544 128.941 341.634 131.573C341.749 134.929 341.402 136.072 339.28 139.319C337.862 141.489 336.77 142.409 333.627 144.08C330.928 145.515 328.403 146.219 324.287 146.682C318.924 147.287 318.476 146.774 318.016 139.51C317.779 135.762 316.934 122.932 316.216 112.176C316.039 109.519 316.264 108.493 317.255 107.435ZM305.086 110.601C305.086 110.303 305.507 109.638 306.022 109.124C307.455 107.692 309.305 107.88 310.167 109.546C310.767 110.707 311.076 113.203 311.698 121.939C312.357 131.193 312.4 135.63 311.859 138.443C310.347 146.295 305.865 150.365 299.212 149.929C293.951 149.584 290.654 145.81 289.147 138.412C288.354 134.52 286.962 115.475 287.328 113.526C287.543 112.381 288.889 111.214 289.994 111.214C291.96 111.214 292.572 112.256 292.819 116.026C293.592 127.797 294.345 136.247 294.773 137.953C296.296 144.024 300.466 145.968 304.043 142.276C306.832 139.398 307 136.514 305.519 116.885C305.281 113.726 305.086 110.899 305.086 110.601ZM322.281 111.078L323.932 110.763C327.821 110.023 329.577 110.474 330.518 112.457C331.561 114.654 330.707 117.377 328.472 118.983C327.216 119.886 323.036 121.291 322.677 120.932C322.539 120.794 322.393 118.521 322.354 115.879L322.281 111.078ZM263.228 117.424C263.281 115.795 265.606 114.304 269.293 113.536C271.548 113.065 275.819 113.2 277.756 113.803C285.781 116.302 287.37 127.045 280.695 133.677C278.742 135.618 276.289 136.925 272.623 137.98C271.337 138.35 270.287 138.759 270.291 138.89C270.294 139.02 270.465 141.864 270.671 145.211C270.878 148.558 270.963 151.739 270.861 152.28C270.614 153.6 269.577 154.389 268.089 154.389C266.823 154.389 266.264 153.965 265.751 152.616C265.443 151.806 265.16 148.607 264.641 140.089C264.49 137.593 264.241 133.757 264.089 131.564C263.491 122.916 263.203 118.19 263.228 117.424ZM268.909 119.326L270.147 119.005C270.828 118.828 272.225 118.673 273.253 118.661C276.999 118.617 278.995 120.655 279.035 124.566C279.063 127.341 277.253 130.185 274.594 131.541C273.502 132.098 269.941 133.1 269.746 132.905C269.609 132.768 268.946 123.129 268.925 120.976L268.909 119.326ZM225.754 126.03C227.314 122.74 229.538 120.876 233.007 119.954C235.074 119.405 236.774 119.519 239.059 120.362C240.936 121.055 242.911 122.909 242.911 123.979C242.911 125.069 242.189 126.271 241.24 126.762C240.43 127.18 240.349 127.163 238.655 126.216C236.474 124.997 234.421 124.873 232.673 125.855C230.628 127.004 229.646 129.87 230.642 131.784C231.441 133.319 232.695 134.1 237.069 135.788C240.467 137.099 241.72 137.868 243.515 139.75C245.71 142.05 246.293 143.763 246.16 147.514C246.065 150.149 245.973 150.57 245.103 152.324C243.817 154.915 241.423 157.323 238.922 158.539C237.103 159.424 236.834 159.476 234.101 159.476C231.37 159.476 231.1 159.424 229.323 158.549C226.258 157.041 224.225 154.519 224.62 152.718C224.836 151.738 226.217 150.539 227.131 150.539C228.001 150.539 228.708 150.918 230.256 152.216C231.8 153.51 232.656 153.839 234.484 153.839C236.548 153.839 238.609 152.759 239.638 151.137C241.056 148.903 241.029 146.58 239.56 144.362C239.388 144.103 239.266 143.903 239.122 143.721C238.516 142.956 237.509 142.508 230.643 139.244C228.451 138.202 226.718 136.649 225.709 134.824C224.96 133.469 224.895 133.131 224.893 130.601C224.891 128.087 224.965 127.695 225.754 126.03ZM215.124 124.588C215.124 122.84 215.794 121.793 217.136 121.44C219.198 120.897 220.608 122.179 221.008 124.964C221.462 128.118 218.555 134.294 216.912 133.664C215.996 133.313 215.866 132.297 216.465 130.182L217.033 128.174L216.079 127.118C215.24 126.19 215.124 125.884 215.124 124.588ZM200.543 125.667C202.737 125.263 205.028 124.829 205.633 124.702C206.238 124.576 207.489 124.459 208.413 124.443C209.846 124.418 210.201 124.514 210.835 125.102C211.47 125.691 211.566 125.975 211.494 127.068C211.364 129.057 210.859 129.296 204.328 130.468L198.755 131.468L198.684 132.822C198.645 133.567 198.707 135.785 198.822 137.751L199.03 141.326L199.993 141.29C200.523 141.27 202.302 141.049 203.948 140.799C208.245 140.145 209.347 140.601 209.347 143.035C209.347 145.12 208.819 145.424 203.432 146.427C200.829 146.912 199.869 147.005 199.568 147.499C199.348 147.86 199.479 148.436 199.578 149.536C199.689 150.768 199.865 153.226 199.969 154.998C200.073 156.771 200.243 158.306 200.347 158.41C200.451 158.514 202.983 158.207 205.973 157.729C208.964 157.251 211.759 156.861 212.185 156.862C213.368 156.865 213.974 157.32 214.316 158.463C214.909 160.441 213.762 161.969 211.283 162.503C208.822 163.033 198.189 164.446 197.462 164.339C196.916 164.259 196.469 163.936 196.127 163.374C195.136 161.745 195.113 161.519 194.087 142.976C193.861 138.893 193.598 134.176 193.503 132.495C193.211 127.353 193.636 126.941 200.543 125.667ZM323.279 127.209C323.586 126.738 324.38 126.585 326.27 126.202C329.948 125.458 331.587 125.744 333.555 127.471C334.981 128.723 335.61 130.203 335.618 132.323C335.632 136.507 332.437 139.463 326.705 140.567C325.414 140.816 324.302 140.963 324.233 140.894C324.114 140.776 323.42 133.139 323.151 129.002C323.091 128.082 323.051 127.558 323.279 127.209ZM183.245 134.498C182.947 129.838 183.058 129.035 184.119 128.201C185.513 127.107 187.639 128.021 187.996 129.867C188.305 131.469 189.453 150.878 189.693 158.557C189.851 163.627 189.832 163.918 189.286 164.777C188.649 165.779 187.539 166.324 186.611 166.091C186.275 166.007 185.546 165.412 184.991 164.77C184.164 163.812 176.257 151.038 172.981 145.37C172.519 144.569 172.089 143.965 172.027 144.027C171.964 144.09 172.122 147.963 172.377 152.633C172.632 157.305 172.853 162.508 172.868 164.196C172.893 167.084 172.855 167.308 172.228 167.977C170.908 169.385 168.983 168.551 168.384 166.314C168.228 165.73 167.968 162.962 167.806 160.164C167.644 157.366 167.395 153.22 167.252 150.951C167.109 148.683 166.867 144.413 166.714 141.464C166.561 138.514 166.36 135.585 166.267 134.953C165.923 132.613 167.055 130.989 169.069 130.931C169.881 130.908 170.238 131.084 170.941 131.852C171.419 132.374 174.581 137.412 177.967 143.047C181.353 148.683 184.142 153.261 184.164 153.222C184.229 153.107 183.548 139.216 183.245 134.498ZM144.544 135.102C145.789 134.343 147.768 133.745 149.857 133.499C154.882 132.906 159.034 134.588 161.055 138.035C162.044 139.721 162.518 143.03 162.096 145.3C161.655 147.666 160.782 149.273 158.78 151.404L157.045 153.251L157.644 154.439C157.974 155.092 159.714 158.064 161.511 161.044C165.017 166.857 165.318 167.731 164.221 168.909C163.378 169.812 162.361 169.962 161.223 169.35C160.464 168.942 159.621 167.823 157.41 164.289C155.849 161.793 154.148 158.925 153.629 157.915C153.111 156.906 152.555 155.998 152.392 155.897C152.23 155.797 151.484 155.862 150.735 156.042L149.372 156.369V158.34C149.372 159.424 149.502 162.254 149.66 164.63C149.977 169.394 149.788 170.842 148.753 171.566C148.421 171.799 147.816 171.989 147.408 171.989C145.246 171.989 144.929 171.164 144.661 164.839C144.271 155.627 143.42 140.887 143.172 139.07C142.945 137.4 143.524 135.724 144.544 135.102ZM118.153 147.651C119.223 143.33 122.588 138.881 125.713 137.658C127.783 136.847 131.063 136.93 132.919 137.84C136.145 139.422 138.58 143.168 139.592 148.109C141.008 155.025 140.699 161.396 138.7 166.489C136.561 171.937 132.964 174.883 128.464 174.871C125.12 174.861 122.642 173.348 120.456 169.979C117.245 165.032 116.247 155.352 118.153 147.651ZM38.3819 141.698C38.6341 140.435 39.0311 139.185 39.2641 138.92C39.7902 138.322 39.9852 138.318 40.4628 138.895C41.0678 139.626 40.8562 143.619 40.0455 146.77C39.2309 149.936 37.5934 153.165 35.541 155.653C32.7093 159.085 28.5419 161.906 25.706 162.312L24.3646 162.504L24.4361 164.152C24.4754 165.059 24.6202 166.977 24.7574 168.414C25.1107 172.11 25.0939 189.489 24.7365 190.157C24.542 190.52 24.1596 190.689 23.5304 190.689C22.7585 190.689 22.5763 190.566 22.4058 189.933C22.2938 189.516 22.1458 184.787 22.0767 179.422C21.9521 169.738 22.2451 163.048 22.8525 161.716C23.0149 161.36 24.2466 160.413 25.6207 159.588C26.9826 158.77 28.7356 157.56 29.5163 156.899C33.8097 153.264 37.2509 147.363 38.3819 141.698ZM148.134 139.126L149.372 138.805C151.203 138.329 153.409 138.37 154.526 138.9C155.092 139.168 155.829 139.882 156.287 140.604C158.107 143.472 156.745 147.533 153.264 149.622C151.952 150.409 149.227 151.31 148.961 151.044C148.847 150.93 148.347 144.239 148.214 141.051L148.134 139.126ZM96.0623 143.662C97.4387 142.818 99.8217 141.971 101.503 141.729C106.031 141.075 109.828 142.858 111.09 146.23C112.339 149.565 112.082 152.574 110.324 155.2L109.506 156.423L110.663 157.093C112.419 158.111 114.062 159.823 114.694 161.292C115.511 163.191 115.733 166.948 115.16 169.177C114.362 172.278 111.691 175.576 108.679 177.178C105.664 178.781 99.1851 179.897 97.6511 179.077C96.2588 178.334 96.2332 178.138 95.4606 162.226C95.2992 158.899 95.0304 153.825 94.8634 150.951C94.523 145.093 94.6122 144.551 96.0623 143.662ZM122.692 149.553C123.595 146.027 125.088 143.646 126.919 142.815C128.922 141.905 130.619 142.276 132.233 143.975C134.682 146.554 136.098 153.629 135.361 159.612C134.812 164.067 133.41 167.276 131.316 168.873C130.473 169.515 130.023 169.651 128.739 169.651C127.461 169.651 127.004 169.515 126.179 168.886C124.214 167.388 123.221 164.935 122.375 159.494C121.749 155.462 121.829 152.926 122.692 149.553ZM76.6834 147.461C77.2454 146.838 78.4482 145.976 79.3561 145.546C82.6126 144.004 86.6766 144.672 88.8098 147.1C89.598 147.998 89.7083 148.292 89.5735 149.138C89.4123 150.152 88.3325 151.364 87.59 151.364C87.369 151.364 86.5041 150.978 85.6675 150.506C84.3618 149.769 83.94 149.665 82.6891 149.769C81.7958 149.843 80.9083 150.119 80.3966 150.484C78.6056 151.758 78.1473 154.414 79.3608 156.484C79.9891 157.556 80.4505 157.864 84.3309 159.808C86.6837 160.987 89.0279 162.296 89.541 162.717C90.0538 163.139 90.8814 164.312 91.3799 165.324C92.2462 167.083 92.2864 167.305 92.2864 170.333C92.2864 173.324 92.2374 173.605 91.4101 175.35C89.5839 179.203 86.2834 181.579 82.4096 181.827C80.9647 181.92 79.9957 181.826 79.0048 181.497C77.131 180.875 74.7163 179.099 74.1656 177.94C72.7014 174.855 75.2068 172.314 77.627 174.428C79.5877 176.141 80.6142 176.664 82.0189 176.664C85.1695 176.664 87.4719 174.225 87.4719 170.889C87.4719 169.329 86.922 167.787 86.0144 166.8C85.6812 166.438 83.6264 165.28 81.4478 164.226C75.6649 161.428 74.4274 160.007 73.8263 155.478C73.5009 153.026 74.7006 149.659 76.6834 147.461ZM99.501 147.311L100.571 147.028C101.159 146.873 102.416 146.733 103.364 146.717C104.961 146.691 105.163 146.758 106.115 147.63C107.059 148.495 107.143 148.692 107.143 150.06C107.143 151.883 106.128 153.531 104.287 154.7C103.189 155.398 100.285 156.288 100.009 156.012C99.9455 155.949 99.8055 153.965 99.6974 151.604L99.501 147.311ZM51.1947 155.083C52.6952 152.07 55.4287 149.384 57.9518 148.444C59.3389 147.927 62.5407 148.092 63.8122 148.745C68.5395 151.172 71.0722 157.392 71.0936 166.626C71.106 171.924 70.2518 175.801 68.3051 179.283C67.258 181.155 64.8147 183.486 63.0166 184.326C60.888 185.322 58.231 185.305 56.2169 184.282C53.3876 182.846 51.0857 179.414 49.864 174.809C49.2595 172.53 49.1349 171.382 49.0353 167.176C48.9264 162.578 48.9671 162.037 49.6048 159.562C49.9825 158.097 50.6979 156.081 51.1947 155.083ZM54.1791 159.84C55.3027 156.143 56.5509 154.333 58.5851 153.452C59.9026 152.882 60.4685 152.913 61.8969 153.633C63.2414 154.31 64.6956 156.202 65.1891 157.915C66.9521 164.035 66.9584 170.415 65.2059 175.054C62.8994 181.16 57.9963 181.693 55.4499 176.114C54.1582 173.284 53.8457 171.575 53.7046 166.571C53.583 162.254 53.6242 161.666 54.1791 159.84ZM100.302 161.295C100.348 161.237 101.039 161.024 101.838 160.823C102.637 160.622 104.111 160.488 105.113 160.524C106.589 160.578 107.143 160.735 108.033 161.351C109.614 162.447 110.583 164.366 110.575 166.388C110.562 169.928 108.3 172.401 104.067 173.503C101.547 174.159 101.005 174.078 100.828 173.02C100.653 171.967 100.181 161.45 100.302 161.295ZM315.953 163.878C319.585 163.339 325.713 162.482 329.571 161.973C336.273 161.089 340.577 160.795 341.516 161.156C342.254 161.439 341.999 162.29 340.989 162.914C339.777 163.663 337.532 164.068 328.746 165.127C324.888 165.592 315.726 166.778 308.388 167.764C293.727 169.732 288.669 170.147 288.076 169.432C287.219 168.401 290.02 167.714 302.748 165.834C306.379 165.298 312.322 164.417 315.953 163.878ZM269.714 165.421C269.816 165.257 270.295 165.002 270.779 164.855C271.264 164.708 272.67 164.613 273.905 164.644C275.964 164.697 276.236 164.772 277.204 165.556C280.097 167.896 280.375 172.494 277.801 175.417C276.6 176.781 275.074 177.423 272.425 177.677C270.801 177.833 270.701 177.808 270.474 177.184C270.157 176.31 269.478 165.803 269.714 165.421ZM265.333 174.12C265.098 173.134 264.69 166.415 264.841 166.021C265.076 165.41 266.284 165.596 266.541 166.283C266.848 167.103 267.525 177.581 267.308 178.147C267.214 178.39 266.836 178.589 266.467 178.589C265.702 178.589 264.54 177.386 261.349 173.29C260.217 171.837 259.27 170.671 259.243 170.7C259.217 170.728 259.313 171.912 259.456 173.33C259.599 174.749 259.68 176.729 259.636 177.73C259.563 179.363 259.493 179.56 258.955 179.637C258.588 179.689 258.248 179.524 258.082 179.214C257.75 178.593 257.136 170.505 257.263 168.414C257.348 167.006 257.405 166.896 258.089 166.816C258.708 166.745 259.115 167.07 260.673 168.879C261.691 170.06 263.139 171.862 263.893 172.883C264.646 173.903 265.312 174.739 265.372 174.739C265.432 174.739 265.414 174.46 265.333 174.12ZM271.726 166.532L272.518 166.414C274.16 166.17 274.711 166.231 275.567 166.753C276.857 167.538 277.412 168.781 277.426 170.909C277.436 172.488 277.337 172.849 276.645 173.757C275.823 174.836 274.691 175.463 273.296 175.614L272.485 175.701L272.313 173.226C272.218 171.865 272.047 169.802 271.933 168.642L271.726 166.532ZM245.71 180.432C245.591 179.802 248.605 169.033 249.131 168.208C249.563 167.531 250.662 167.376 251.081 167.933C251.223 168.122 252.42 170.719 253.74 173.704C255.729 178.202 256.089 179.226 255.843 179.685C255.167 180.949 253.885 180.03 252.965 177.62L252.474 176.336L251.2 176.51C249.584 176.731 248.944 176.801 248.616 177.158C248.38 177.414 248.306 177.818 248.147 178.533C247.956 179.396 247.682 180.325 247.538 180.599C247.195 181.25 245.842 181.127 245.71 180.432ZM235.97 170.167C236.028 170.095 236.101 170.035 236.19 169.946C237.353 168.784 237.695 169.722 238.115 175.215C238.321 177.902 238.493 180.136 238.499 180.179C238.504 180.221 239.806 180.172 241.391 180.07C243.968 179.903 244.292 179.934 244.455 180.358C244.786 181.22 243.934 181.601 240.62 182.072C237.711 182.486 237.341 182.489 236.962 182.11C236.643 181.792 236.445 180.408 236.157 176.495C235.762 171.139 235.692 170.514 235.97 170.167ZM225.693 172.121C225.906 171.273 226.572 170.95 228.742 170.641C231.552 170.241 233.003 170.284 233.191 170.773C233.474 171.513 232.679 171.938 230.442 172.245C229.258 172.406 228.175 172.539 228.035 172.539C227.78 172.539 227.664 175.631 227.909 175.877C227.981 175.948 228.878 175.914 229.904 175.801C231.84 175.589 232.732 175.693 232.732 176.132C232.732 176.732 231.61 177.429 230.361 177.605C229.039 177.792 228.446 177.857 228.205 178.182C227.996 178.465 228.052 178.944 228.126 179.871C228.205 180.847 228.315 181.691 228.372 181.748C228.429 181.805 229.641 181.677 231.065 181.464C232.954 181.182 233.753 181.159 234.019 181.38C234.525 181.799 234.473 182.371 233.901 182.677C233.19 183.057 227.389 183.934 226.88 183.739C226.613 183.636 226.383 183.108 226.289 182.386C225.928 179.593 225.531 172.765 225.693 172.121ZM399.863 172.372C402.284 172.114 406.555 171.627 409.354 171.292C412.154 170.957 414.66 170.667 414.925 170.648C415.328 170.619 415.407 170.854 415.407 172.088V173.562L412.174 174.001C396.376 176.145 393.734 176.476 381.018 177.899C376.251 178.433 369.814 179.178 366.712 179.556C363.61 179.934 353.869 181.045 345.065 182.024C336.261 183.003 325.924 184.173 322.093 184.625C318.262 185.077 310.671 185.944 305.224 186.553C299.777 187.162 292.039 188.037 288.029 188.498C275.615 189.925 261.604 191.51 258.867 191.798C256.583 192.039 247.291 193.11 236.308 194.4C234.417 194.622 229.527 195.176 225.441 195.632C221.356 196.087 215.289 196.775 211.961 197.16C204.815 197.986 180.139 200.757 176.678 201.122C173.034 201.506 166.852 202.195 164.228 202.509C161.977 202.778 151.992 203.898 133.691 205.934C128.925 206.464 119.701 207.462 113.195 208.153C96.1652 209.96 90.2929 210.585 75.7796 212.134C60.0316 213.815 46.643 214.989 45.7593 214.768C45.3992 214.677 45.1045 214.442 45.1045 214.246C45.1045 214.006 46.0278 213.739 47.9244 213.433C51.3496 212.88 68.1276 210.711 74.9543 209.939C77.6779 209.631 81.8871 209.141 84.3081 208.85C86.7291 208.559 91.0002 208.065 93.7995 207.752C98.7906 207.195 100.94 206.945 105.629 206.374C108.565 206.016 126.151 203.949 129.289 203.592C130.575 203.446 134.104 203.024 137.13 202.655C142.52 201.997 147.333 201.438 157.229 200.322C159.944 200.015 165.941 199.332 170.556 198.803C175.171 198.274 182.29 197.467 186.375 197.009C192.527 196.319 202.208 195.188 214.574 193.716C221.113 192.937 241.346 190.623 245.799 190.144C251.93 189.485 254.912 189.141 276.887 186.553C285.966 185.484 296.056 184.305 299.309 183.932C302.562 183.56 308.257 182.89 311.964 182.442C315.671 181.995 321.49 181.317 324.895 180.936C328.299 180.555 334.86 179.813 339.475 179.288C344.091 178.763 353.933 177.649 361.347 176.812C368.761 175.975 375.818 175.168 377.029 175.018C378.239 174.869 381.953 174.435 385.282 174.054C388.611 173.673 392.263 173.245 393.398 173.102C394.533 172.96 397.442 172.631 399.863 172.372ZM249.088 174.956C248.998 174.865 249.618 172.419 249.98 171.439C250.078 171.175 250.413 171.622 250.91 172.676C251.338 173.584 251.694 174.405 251.701 174.501C251.716 174.691 249.252 175.119 249.088 174.956ZM214.849 173.471C214.849 172.899 215.514 172.481 216.913 172.174C218.216 171.887 220.701 172.013 221.457 172.404C222.532 172.959 222.828 173.595 222.828 175.344C222.828 176.456 222.661 177.056 222.14 177.823C221.761 178.379 221.452 178.908 221.452 178.997C221.452 179.086 222.071 180.04 222.828 181.117C224.42 183.384 224.568 184.092 223.447 184.083C222.444 184.075 221.763 183.479 220.362 181.383C219.395 179.936 219.096 179.666 218.605 179.798C218.279 179.885 217.866 179.958 217.685 179.96C217.452 179.963 217.373 180.696 217.41 182.508L217.463 185.051L216.73 185.136C216.215 185.196 215.952 185.073 215.845 184.724C215.698 184.24 214.849 174.652 214.849 173.471ZM211.005 185.477C210.567 184.66 209.869 173.867 210.225 173.438C210.384 173.246 210.807 173.089 211.164 173.089C211.324 173.089 211.453 173.088 211.56 173.137C212.003 173.338 212.065 174.377 212.391 179.755C212.653 184.086 212.65 185.268 212.375 185.599C211.902 186.168 211.348 186.119 211.005 185.477ZM217.054 175.761C217.051 174.367 217.126 174.14 217.669 173.922C219.409 173.224 220.902 173.931 220.902 175.454C220.902 176.667 219.962 177.657 218.564 177.919C217.272 178.161 217.06 177.858 217.054 175.761ZM199.354 182.645C199.103 181.608 198.809 175.628 198.985 175.169C199.236 174.517 200.246 174.642 200.51 175.358C200.713 175.906 201.379 184.407 201.371 186.352C201.369 186.927 201.204 187.145 200.666 187.28C199.744 187.511 199.176 186.968 196.231 183.034C194.947 181.319 193.834 179.979 193.757 180.055C193.681 180.132 193.763 181.819 193.94 183.805C194.287 187.701 194.154 188.324 193.012 188.158C192.617 188.101 192.391 187.794 192.257 187.138C191.941 185.585 191.368 176.763 191.552 176.284C191.657 176.01 192.042 175.839 192.553 175.839C193.259 175.839 193.636 176.155 195.066 177.956C195.992 179.12 197.256 180.79 197.875 181.668C199.049 183.331 199.608 183.701 199.354 182.645ZM179.785 183.264C179.769 180.256 180.482 178.637 182.342 177.458C183.906 176.466 186.143 176.357 187.533 177.204C189.486 178.394 190.43 182.643 189.418 185.689C188.226 189.275 184.644 190.681 181.945 188.624C180.389 187.437 179.8 185.975 179.785 183.264ZM169.565 180.11C168.593 179.389 169.628 178.86 173.069 178.315C176.617 177.753 177.966 177.674 178.475 177.996C179.391 178.577 177.776 179.689 176.017 179.689C175.266 179.689 175.233 179.744 175.233 180.981C175.233 181.691 175.376 183.976 175.55 186.058C175.894 190.157 175.755 190.803 174.569 190.633C173.868 190.533 173.73 189.738 173.436 184.122L173.23 180.169L171.659 180.333C170.526 180.451 169.942 180.389 169.565 180.11ZM185.269 187.778C182.108 188.571 180.32 181.796 182.987 179.131C183.8 178.318 185.001 178.068 186.089 178.485C187.198 178.911 188.111 182.197 187.763 184.513C187.55 185.937 186.351 187.507 185.269 187.778ZM160.033 182.524C160.661 181.345 161.924 180.203 163.136 179.72C164.055 179.353 165.538 179.375 166.704 179.773C167.46 180.031 167.667 180.249 167.667 180.789C167.667 181.404 167.567 181.469 166.704 181.407C163.413 181.171 162.694 181.458 161.766 183.374C160.826 185.315 161.13 187.983 162.475 189.58C164.012 191.405 166.98 190.157 166.98 187.685V186.564H165.444C163.685 186.564 163.588 186.246 165.047 185.258C166.063 184.569 168.106 184.409 168.56 184.983C168.709 185.172 168.897 185.849 168.979 186.487C169.385 189.691 167.289 192.125 164.098 192.155C162.413 192.17 161.216 191.581 160.185 190.228C159.458 189.275 159.414 189.06 159.416 186.447C159.418 184.111 159.515 183.495 160.033 182.524ZM155.005 183.92C154.867 181.841 154.914 181.339 155.277 180.975C155.768 180.485 156.399 180.614 156.646 181.256C156.735 181.489 156.929 183.243 157.076 185.153L157.486 190.475C157.618 192.194 157.582 192.354 156.978 192.75C156.62 192.985 156.119 193.096 155.864 192.999C155.609 192.901 154.215 191.221 152.766 189.267C151.317 187.313 150.084 185.761 150.027 185.818C149.969 185.876 150.058 187.555 150.225 189.55C150.549 193.414 150.433 193.989 149.332 193.989C148.545 193.989 148.371 193.199 147.986 187.87C147.594 182.454 147.721 181.614 148.929 181.614C149.443 181.614 150.042 182.175 151.499 184.02C152.545 185.344 153.763 186.95 154.206 187.589C154.649 188.229 155.113 188.755 155.235 188.758C155.358 188.761 155.394 188.238 155.314 187.595C155.235 186.952 155.096 185.299 155.005 183.92ZM144.016 194.277C143.702 193.77 143.107 183.412 143.364 182.92C143.658 182.355 144.502 182.287 144.923 182.794C145.224 183.157 145.837 193.562 145.594 194.194C145.44 194.597 144.252 194.659 144.016 194.277ZM132.545 183.979C132.737 183.861 135.362 183.443 139.331 182.9C140.723 182.709 141.247 182.829 141.348 183.362C141.488 184.093 141.08 184.389 139.42 184.764L137.955 185.096L138.093 187.961C138.168 189.537 138.23 191.878 138.23 193.164C138.23 195.357 138.193 195.507 137.63 195.587C136.75 195.712 136.539 195.058 136.336 191.567C136.237 189.857 136.079 187.724 135.985 186.827L135.814 185.195L134.766 185.362C133.316 185.594 132.315 185.303 132.315 184.65C132.315 184.359 132.419 184.057 132.545 183.979ZM128.972 189.061C128.824 187.183 128.775 185.358 128.864 185.005C128.978 184.551 129.222 184.364 129.702 184.364C129.877 184.364 130.015 184.362 130.128 184.414C130.562 184.616 130.623 185.621 130.945 190.628C131.299 196.134 131.218 196.566 129.863 196.409C129.319 196.346 128.646 195.645 127.007 193.439C125.828 191.851 124.628 190.242 124.342 189.864C123.823 189.179 123.821 189.186 124.007 191.926C124.301 196.28 124.261 197.047 123.723 197.389C122.779 197.99 122.436 197.114 122.121 193.293C121.959 191.332 121.865 188.736 121.912 187.526L121.999 185.326H122.824C123.563 185.326 123.936 185.71 126.374 188.973C127.873 190.979 129.131 192.588 129.171 192.548C129.21 192.509 129.12 190.94 128.972 189.061ZM117.83 190.486C117.702 187.54 117.746 186.468 118.006 186.155C118.197 185.926 118.518 185.739 118.721 185.739C119.486 185.739 119.71 186.924 119.754 191.199C119.802 195.925 119.594 196.701 117.952 197.924C116.872 198.729 114.545 198.852 113.448 198.162C112.068 197.294 111.63 195.967 111.328 191.753C111.026 187.525 111.144 186.564 111.969 186.564C112.752 186.564 112.954 187.335 113.147 191.062C113.335 194.694 113.786 196.038 115.052 196.735C115.729 197.107 115.889 197.107 116.565 196.729C117.789 196.047 118.021 194.903 117.83 190.486ZM107.111 190.163C106.963 188.384 107.009 187.974 107.402 187.581C108.628 186.355 108.888 187.204 109.202 193.461C109.457 198.552 109.441 199.107 109.031 199.409C108.273 199.968 107.555 199.368 107.553 198.173C107.552 197.611 107.471 196.487 107.373 195.676L107.196 194.201L105.243 194.384C103.678 194.53 102.956 194.547 102.648 194.912C102.348 195.267 102.44 195.952 102.527 197.407C102.667 199.759 102.635 200.003 102.145 200.264C101.11 200.818 100.827 200.25 100.638 197.231C100.298 191.816 100.362 188.589 100.815 188.214C101.511 187.636 102.053 188.357 102.053 189.863C102.053 190.582 102.133 191.572 102.232 192.063L102.41 192.956L104.226 192.772C105.999 192.591 106.756 192.555 107.046 192.168C107.29 191.843 107.204 191.272 107.111 190.163ZM25.3685 193.314C23.7109 192.777 23.5065 192.562 23.9178 191.795C24.1714 191.32 24.4867 191.24 26.0626 191.245C30.2047 191.26 35.5188 194.693 38.7406 199.435C40.928 202.655 42.6285 208.337 42.6285 212.427C42.6285 214.416 42.4502 214.89 41.7049 214.885C40.3883 214.875 40.0633 214.218 39.1791 209.776C38.7967 207.855 38.1158 205.404 37.6663 204.329C35.6206 199.443 30.7142 195.048 25.3685 193.314ZM78.9434 195.345C81.894 194.897 85.1747 194.422 86.2339 194.289C87.2931 194.157 89.1487 194.066 90.3576 194.087C92.1502 194.119 92.5711 194.209 92.641 194.574C92.9043 195.953 91.4121 196.294 75.9172 198.401C59.9904 200.566 56.9231 200.713 56.4675 199.33C56.2422 198.646 57.1911 198.457 69.452 196.739C71.7217 196.421 75.9928 195.794 78.9434 195.345ZM21.143 231.114C20.8258 223.465 20.9265 206.118 21.2943 205.058C21.5485 204.325 22.45 204.233 22.6437 204.92C23.1045 206.556 23.1981 207.788 24.0284 223.139C25.7454 254.89 25.8279 263.463 24.7508 298.076C24.605 302.765 24.4111 309.153 24.3197 312.272L24.1541 317.942L24.9316 318.092C25.3591 318.175 27.576 318.111 29.858 317.949C32.1398 317.788 34.3374 317.739 34.7413 317.84C35.7554 318.094 35.6632 318.755 34.5814 318.984C34.0895 319.089 33.0978 319.424 32.377 319.729C30.879 320.364 30.6264 320.915 30.9147 322.915C32.035 330.684 32.1566 332.07 31.8972 334.116C31.3722 338.254 30.3637 340.014 28.5168 340.014C26.8786 340.014 27.0387 339.028 28.8275 338.102C29.1807 337.919 29.6448 337.35 29.8591 336.838C30.4537 335.416 30.3604 331.177 29.6704 328.279C29.2253 326.408 29.1161 325.215 29.1945 323.077L29.2963 320.302L26.8772 319.943C25.5464 319.746 24.3682 319.676 24.2581 319.786C23.9624 320.083 24.0713 337.703 24.4331 348.126C25.7525 386.119 25.5872 391.661 22.9491 397.88C22.7571 398.333 22.8011 398.373 23.2539 398.157C24.457 397.584 43.1787 398.345 44.192 399.009C45.0327 399.56 44.9991 400.341 44.1045 401.044C43.4918 401.526 42.9922 401.614 40.8771 401.614C38.3084 401.614 30.72 400.871 24.9112 400.052L21.6374 399.59L21.0041 400.383C20.6558 400.82 20.3339 401.554 20.2888 402.014C20.2024 402.897 20.4489 406.048 20.8924 409.726C21.5642 415.301 21.737 418.186 21.7083 423.353C21.6822 428.077 21.743 428.98 22.1114 429.348C22.4677 429.704 23.6597 429.817 28.8041 429.982C32.2463 430.092 35.6819 430.259 36.4385 430.353C39.7085 430.759 42.6007 431.452 44.0649 432.181C44.9306 432.611 45.9412 432.964 46.3101 432.964H46.9811L47.0834 423.545C47.1921 413.525 47.2212 413.294 48.6408 411.292C49.1531 410.569 49.1693 408.679 49.3311 331.214C49.4912 254.718 49.5977 245.488 50.3289 244.757C50.8723 244.213 51.1468 245.028 51.4343 248.035C51.9152 253.066 52.2275 293.628 52.2429 353.11C52.2572 408.5 52.3198 410.763 51.2401 412.111C51.134 412.243 51.0169 412.367 50.8877 412.531C50.582 412.92 50.3317 413.314 50.3317 413.407C50.3319 413.5 51.7865 413.582 53.5643 413.589C57.9237 413.605 60.3579 413.913 61.126 414.543C61.6342 414.96 61.6919 415.146 61.4391 415.553C61.1645 415.994 60.7395 416.047 57.7091 416.012C54.6878 415.977 52.277 415.621 50.574 414.956C50.278 414.841 50.0838 414.955 49.9941 415.298C49.9198 415.582 49.9209 420.523 49.9966 426.279L50.1339 436.744L52.7774 436.927C54.2317 437.028 56.9688 437.306 58.8602 437.545C60.7516 437.784 62.5395 437.996 62.8334 438.016C63.3514 438.05 63.3657 437.829 63.3027 430.764C63.2438 424.147 63.5157 418.656 63.9597 417.5C64.0532 417.256 64.3281 416.98 64.5702 416.888C65.6109 416.488 65.7311 417.19 66.009 425.275C66.157 429.579 66.2803 434.117 66.283 435.357L66.2882 437.613L68.6542 436.526C69.9552 435.928 71.3228 435.439 71.6928 435.439C72.366 435.439 73.5127 436.357 73.7732 437.104C73.8816 437.415 74.025 437.368 74.433 436.887C74.7898 436.467 75.7362 436.076 77.4303 435.649L79.9063 435.026L79.8194 417.839C79.7718 408.386 79.6183 386.544 79.4785 369.301C78.9465 303.649 79.1709 275.106 80.322 262.051C80.7498 257.199 81.6456 251.945 82.1273 251.464C82.9199 250.671 83.1056 251.641 82.943 255.726C82.3378 270.922 82.2046 281.458 82.3571 302.064C82.4495 314.542 82.5848 327.412 82.6577 330.664C82.7304 333.916 82.8657 358.418 82.9584 385.114C83.0511 411.809 83.1593 433.686 83.1989 433.729C83.2385 433.771 84.2237 433.292 85.3882 432.665C87.0279 431.78 87.4645 431.422 87.3239 431.075C87.117 430.564 86.8015 409.934 86.3825 369.576C86.224 354.3 85.972 334.686 85.8223 325.989C85.3258 297.147 85.5244 283.255 86.5217 277.052C86.952 274.374 87.3707 273.536 88.1319 273.828C88.5072 273.971 88.5556 275.048 88.5267 282.597C88.4934 291.347 88.9075 318.352 89.3881 338.776C89.8404 358.002 90.2932 403.04 90.1688 416.464C90.0692 427.216 89.9818 429.428 89.6195 430.361L89.1884 431.472L91.8811 431.518C93.3621 431.544 95.8543 431.692 97.4192 431.848C102.887 432.392 119.852 433.765 126.4 434.193C130.032 434.43 134.736 434.744 136.855 434.891C142.385 435.274 152.307 435.923 157.901 436.267C160.549 436.43 162.994 436.622 163.334 436.694L163.953 436.824V354.748C163.953 309.606 163.86 272.622 163.747 272.562C163.634 272.502 162.241 272.548 160.652 272.663C158.079 272.849 144.479 273.482 125.713 274.287C122.157 274.44 116.71 274.686 113.608 274.835C104.338 275.279 91.2971 275.315 90.5669 274.898C89.7551 274.434 89.7842 274.062 90.6591 273.73C91.9923 273.223 114.584 271.613 132.728 270.73L144.283 270.169C150.194 269.883 158.796 269.558 161.835 269.508L163.705 269.476L163.685 260.215C163.665 250.864 163.773 249.817 164.636 250.997C165.383 252.019 166.275 261.254 166.699 272.364C167.595 295.83 167.838 322.915 167.818 397.166L167.805 444.281L169.413 445.889H167.928C166.562 445.889 166.41 445.824 166.024 445.078C165.774 444.594 165.604 443.543 165.604 442.477V440.689L164.71 440.555C164.218 440.482 161.03 440.22 157.626 439.974C154.221 439.727 149.95 439.414 148.134 439.279C146.319 439.144 141.305 438.779 136.992 438.468C114.081 436.815 98.8393 435.369 92.4239 434.238L88.7099 433.584L87.1968 435.004C86.3646 435.786 85.1885 436.729 84.5832 437.101L83.4828 437.776L84.8584 437.851C85.6149 437.892 92.9192 438.484 101.09 439.167C109.261 439.85 117.432 440.527 119.247 440.672C125.932 441.207 127.969 441.395 139.881 442.581C141.394 442.731 144.613 443.05 147.034 443.289C149.455 443.528 154.287 444.005 157.772 444.35C164.06 444.972 165.396 445.277 165.988 446.229C166.222 446.606 166.154 446.836 165.661 447.329C164.961 448.029 163.783 448.067 159.139 447.538C157.777 447.383 154.249 447.012 151.298 446.714C148.348 446.417 144.819 446.047 143.457 445.894C141.1 445.629 135.164 445.011 126.125 444.09C123.856 443.859 120.946 443.547 119.66 443.397C118.374 443.247 114.35 442.815 110.719 442.438C98.8822 441.206 91.5557 440.371 86.2339 439.648C83.359 439.257 79.5831 438.916 77.843 438.89C75.214 438.852 74.4899 438.746 73.5595 438.261L72.4395 437.678L69.8597 439.306C65.7903 441.875 65.6329 441.912 61.5827 441.253C55.0587 440.191 51.1301 439.777 49.3572 439.967C47.298 440.188 47.2213 440.112 47.0303 437.657C46.9027 436.016 46.8391 435.874 46.1497 435.691C45.4173 435.497 40.2887 434.922 34.1 434.342C21.4767 433.159 19.8632 432.564 18.7341 428.674C18.2284 426.931 18.1723 425.73 18.0494 413.951L17.9154 401.125L18.5382 399.788C19.0898 398.604 21.2214 396.114 21.6836 396.114C22.009 396.114 21.7356 373.201 21.2453 359.401C20.6888 343.731 20.6294 309.446 21.1378 297.251C22.1051 274.052 22.1067 254.342 21.143 231.114ZM395.461 205.561C396.974 205.399 398.646 205.215 399.175 205.153C400.829 204.96 405.327 205.199 406.169 205.525C408.258 206.334 404.575 207.151 396.286 207.718C393.865 207.883 391.451 208.091 390.922 208.179L389.959 208.339L389.926 213.058C389.898 217.207 389.824 217.934 389.317 219.083C389 219.801 388.636 220.389 388.507 220.389C388.046 220.389 387.578 214.813 387.776 211.681L387.97 208.626L385.938 209.11C384.821 209.376 383.804 209.535 383.679 209.462C383.279 209.23 384.608 208.076 385.932 207.506C387.506 206.829 391.777 205.958 395.461 205.561ZM195.83 215.296C195.991 213.094 196.2 211.167 196.295 211.014C196.748 210.281 197.118 211.116 197.291 213.261C199.039 235.009 200.241 317.996 199.082 336.989C198.246 350.691 198.043 357.717 198.125 370.042C198.186 379.255 198.126 382.136 197.867 382.397C197.441 382.826 196.877 381.576 196.448 379.251C195.445 373.813 195.391 354.464 196.343 342.076C196.765 336.588 196.825 332.26 196.793 309.351C196.759 284.7 196.637 275.112 195.845 234.9C195.626 223.797 195.622 218.145 195.83 215.296ZM243.271 229.536C242.356 227.39 242.508 219.42 243.498 217.57C243.9 216.818 244.241 216.998 244.538 218.12C244.833 219.237 245.023 230.469 244.751 230.741C244.395 231.096 243.691 230.523 243.271 229.536ZM84.4825 239.588C91.2872 229.55 104.89 222.333 119.055 221.243C121.249 221.074 122.233 220.995 123.217 221C124.094 221.004 124.971 221.075 126.704 221.21C132.5 221.661 137.957 223.112 143.212 225.601C151.181 229.375 159.545 236.994 162.452 243.128C163.275 244.865 163.297 245.451 162.564 246.114C162.02 246.606 161.968 246.607 161.084 246.131C160.581 245.86 159.213 244.478 158.046 243.06C155.421 239.871 151.946 236.317 150.556 235.401C149.188 234.5 143.639 232.666 140.134 231.958C132.571 230.429 124.105 230.721 115.986 232.79C105.838 235.375 97.6907 241.817 92.3255 251.496C90.9669 253.947 89.0181 259.971 88.2827 263.992C87.6241 267.594 87.1418 268.578 86.6579 267.306C85.5921 264.504 87.3322 257.107 90.6236 250.449C97.8426 235.846 111.43 228.267 130.39 228.266C135.164 228.266 136.885 228.442 141.229 229.373C142.889 229.728 141.601 228.928 138.729 227.819C132.471 225.403 127.811 224.63 120.938 224.866C115.557 225.052 112.307 225.59 108.034 227.002C99.2418 229.909 91.0767 235.241 85.9481 241.426C84.945 242.636 83.8132 244.152 83.4333 244.795C82.7004 246.036 82.5323 246.141 82.0539 245.663C81.4714 245.081 82.4959 242.518 84.4825 239.588ZM398.487 223.538C403.178 223.315 408.749 222.965 410.867 222.76C412.986 222.555 414.881 222.371 415.078 222.351C415.338 222.324 415.414 222.671 415.353 223.61C415.273 224.847 415.226 224.916 414.306 225.107C412.152 225.556 395.983 225.962 392.523 225.654C388.646 225.309 387.345 225.088 387.345 224.777C387.345 224.267 390.47 223.92 398.487 223.538ZM70.9976 282.676C70.9883 231.71 71.1032 224.496 71.9473 223.208C72.4615 222.424 72.7738 222.424 73.0252 223.208C73.4373 224.493 73.7355 246.1 73.8948 286.251C74.0572 327.13 73.9457 337.119 73.1319 354.589C72.3985 370.337 72.5203 390.812 73.4293 404.501C73.5597 406.468 73.8759 411.294 74.1314 415.226C74.8597 426.425 74.5427 435.989 73.4434 435.989C73.1801 435.989 72.6747 434.893 72.492 433.926C72.4065 433.473 72.21 429.884 72.0554 425.951C71.7864 419.097 71.6064 416.118 70.9679 407.939C69.7513 392.362 69.5092 385.693 69.6738 372.326C69.756 365.671 69.9508 357.875 70.1071 355.001C70.8956 340.5 71.007 331.463 70.9976 282.676ZM228.055 233.03C235.941 232.394 247.589 231.134 254.603 230.157C259.558 229.467 262 229.452 262.657 230.109C263.008 230.46 262.977 230.561 262.407 230.922C261.053 231.779 255.234 232.725 246.9 233.441C244.176 233.675 241.267 233.925 240.435 233.996C239.603 234.068 237.498 234.251 235.758 234.404C224.416 235.401 208.388 236.421 207.666 236.192C206.505 235.823 207.33 235.227 209.727 234.702C210.852 234.456 214.574 234.116 228.055 233.03ZM188.781 238.168C188.863 235.672 189.017 233.491 189.122 233.321C189.257 233.102 189.415 233.097 189.666 233.305C190.083 233.651 190.234 235.299 190.776 245.414C191.402 257.104 191.611 265.06 192.575 313.889C192.734 321.981 192.989 333.675 193.14 339.876C193.871 369.794 194.184 418.19 193.659 420.08C193.373 421.11 192.863 421.511 192.175 421.247C191.542 421.004 191.532 420.74 190.646 381.951C189.738 342.142 188.499 246.686 188.781 238.168ZM100.539 249.494C105.724 242.592 113.555 237.986 122.686 236.467C124.277 236.203 126.432 236.114 129.427 236.189C136.277 236.361 140.752 237.724 146.143 241.284C150.83 244.378 154.2 248.105 156.494 252.732C159.395 258.582 160.28 263.963 158.498 264.913C157.796 265.287 155.648 265.463 147.997 265.773C144.138 265.929 138.939 266.179 136.442 266.329C121.341 267.237 94.3283 268.019 92.646 267.597C91.8338 267.393 91.4517 266.685 91.8779 266.171C92.0366 265.98 92.7197 265.741 93.3956 265.639L94.6249 265.455V264.141C94.6249 262.709 95.4092 259.355 96.3033 256.964C97.2134 254.53 98.6222 252.045 100.539 249.494ZM225.313 252.727C224.992 251.883 224.816 238.058 225.116 237.233C225.508 236.154 225.775 236.557 225.938 238.47C226.025 239.491 226.297 241.564 226.542 243.076C227.128 246.692 227.213 251.315 226.715 252.495C226.269 253.552 225.665 253.651 225.313 252.727ZM120.259 240.194C121.421 239.876 123.34 239.506 124.524 239.371C127.216 239.064 131.58 239.252 134.1 239.783C136.719 240.334 139.468 241.273 139.468 241.616C139.468 241.77 139.08 242.387 138.606 242.985C138.132 243.583 136.23 246.315 134.378 249.056L131.012 254.038L128.018 253.977C125.978 253.936 124.543 254.053 123.512 254.344C121.944 254.786 121.197 255.068 120.593 254.882C119.888 254.666 119.379 253.813 117.992 251.838C112.644 244.218 112.228 243.559 112.581 243.271C113.225 242.745 118.153 240.77 120.259 240.194ZM52.6256 241.409C52.3516 240.696 53.1359 240.197 55.164 239.794C57.8288 239.265 61.1736 239.249 61.6003 239.763C62.1162 240.384 61.8333 241.071 60.8171 241.664C60.1092 242.078 59.2231 242.235 57.1039 242.325C54.2064 242.447 52.9232 242.184 52.6256 241.409ZM64.3121 412.119C63.4315 411.249 64.3795 243.012 65.2728 241.633C65.7501 240.895 66.2563 241.3 66.4778 242.595C66.9892 245.588 66.6261 334.223 65.8755 389.651C65.5864 411 65.4315 413.224 64.3121 412.119ZM133.177 254.051C134.746 252.651 137.963 248.175 140.026 244.52C140.687 243.348 141.359 242.391 141.518 242.393C141.677 242.396 142.409 242.752 143.145 243.185L144.482 243.973L143.163 245.311C140.181 248.334 136.88 252.264 135.856 254.008C135.257 255.028 134.704 255.864 134.627 255.864C134.55 255.864 134.06 255.574 133.538 255.219L132.59 254.575L133.177 254.051ZM107.833 246.708C107.834 246.526 108.414 245.977 109.12 245.488L110.405 244.6L111.46 246.545C112.812 249.034 116.651 254.701 117.571 255.565C118.112 256.073 118.206 256.315 117.972 256.596C117.805 256.798 117.556 256.964 117.421 256.964C117.285 256.964 116.341 256.07 115.322 254.977C114.304 253.884 112.201 251.652 110.65 250.015C109.099 248.379 107.831 246.89 107.833 246.708ZM137.564 255.382C139.82 252.972 145.04 246.852 145.618 245.939L146.128 245.134L147.801 246.58C150.068 248.541 151.859 251.013 153.629 254.626C154.766 256.946 156.25 261.128 156.25 262.009C156.25 262.058 153.31 262.246 149.716 262.426C146.123 262.605 142.23 262.819 141.066 262.901L138.949 263.049L138.63 261.864C138.268 260.522 137.462 258.855 136.633 257.734L136.072 256.975L137.564 255.382ZM97.5053 262.06C99.0828 257.008 101.603 252.622 104.898 249.195C105.735 248.325 106.477 247.614 106.548 247.614C106.619 247.614 106.994 248.153 107.38 248.812C108.58 250.859 111.217 254.252 113.434 256.603L115.558 258.854L114.675 260.419C114.07 261.489 113.791 262.347 113.791 263.135V264.286L107.44 264.635C103.948 264.827 100.1 265.085 98.8891 265.209C97.6786 265.333 96.6472 265.395 96.5968 265.347C96.5465 265.299 96.9553 263.82 97.5053 262.06ZM223.515 256.678C226.172 256.426 237.238 255.244 239.885 254.929C241.399 254.75 245.771 254.989 246.58 255.297C248.505 256.029 246.533 256.876 242.051 257.242C240.214 257.392 236.591 257.722 234.001 257.976C230.476 258.321 226.359 258.442 217.624 258.457C205.357 258.477 203.896 258.326 207.536 257.412C208.896 257.071 210.654 256.964 214.906 256.965C217.976 256.965 221.851 256.836 223.515 256.678ZM116.524 262.737C118.05 259.932 120.915 257.77 124.062 257.047C127.593 256.236 131.343 257.143 133.512 259.332C134.829 260.662 136.068 262.971 135.555 263.143C135.362 263.208 132.233 263.391 128.601 263.551C124.97 263.711 120.587 263.922 118.862 264.022L115.726 264.203L116.524 262.737ZM131.995 282.239C133.475 280.934 134.854 280.173 136.992 279.482C139.956 278.524 143.17 278.901 146.799 280.633C149.162 281.76 151.848 283.958 152.571 285.357C152.908 286.008 152.929 286.323 152.676 286.934C152.451 287.476 152.44 288.006 152.638 288.762C153.133 290.657 153.762 294.969 154.057 298.489C154.57 304.623 154.916 330.36 154.591 338.226C154.271 345.968 154.078 347.245 153.146 347.778C152.392 348.209 131.018 348.234 129.702 347.806C128.613 347.451 127.929 346.296 128.442 345.677C128.752 345.304 129.591 345.239 134.115 345.239C137.034 345.239 139.619 345.164 139.858 345.072C140.24 344.925 140.294 343.991 140.298 337.441C140.3 333.335 140.4 329.823 140.518 329.636C140.878 329.07 143.497 328.731 147.645 328.713L151.573 328.696V327.205C151.573 326.531 151.62 326.138 151.445 325.934C151.175 325.62 150.38 325.756 148.075 326.007C146.437 326.185 144.468 326.212 143.046 326.076L140.708 325.851L140.357 324.78C140.106 324.013 140.002 321.389 139.993 315.567C139.98 307.731 140.109 306.23 140.836 305.781C141.074 305.634 149.471 304.835 150.954 304.818C151.188 304.815 151.298 304.319 151.298 303.268C151.298 302.027 151.227 301.78 150.939 302.019C150.321 302.532 146.889 302.912 143.624 302.83C141.896 302.787 140.868 302.872 140.277 302.404C139.315 301.642 139.517 299.411 139.746 292.76C139.909 288.031 140.157 283.861 140.297 283.493C140.598 282.7 141.271 282.835 141.496 283.734C141.58 284.067 141.734 288.001 141.839 292.478L142.03 300.616L145.632 300.481C147.812 300.399 149.657 300.463 150.305 300.643L151.375 300.941L151.173 298.684C151.062 297.442 150.929 294.508 150.879 292.164L150.786 287.901L148.373 285.907C145.305 283.37 143.768 282.751 140.431 282.708L137.955 282.676L137.875 286.801C137.831 289.07 137.917 293.266 138.067 296.125C138.396 302.391 138.269 302.945 136.394 303.454C135.244 303.767 131.834 303.659 130.843 303.279C130.455 303.13 130.39 303.329 130.39 304.665C130.39 306.148 130.42 306.216 130.995 306.034C131.328 305.928 132.659 305.754 133.953 305.646C136.432 305.441 137.578 305.718 137.919 306.605C138.011 306.846 138.165 310.532 138.262 314.797C138.439 322.643 138.237 325.53 137.473 326.056C137.284 326.185 135.675 326.248 133.897 326.194L130.665 326.096V327.555C130.665 328.398 130.788 329.014 130.956 329.014C131.116 329.014 132.095 328.882 133.132 328.721C135.336 328.38 137.09 328.72 137.55 329.578C137.948 330.321 138.36 335.409 138.439 340.564C138.504 344.759 138.496 344.828 137.905 344.912C137.522 344.966 137.196 344.794 137.004 344.436C136.575 343.634 136.182 339.103 136.174 334.849C136.169 332.172 136.075 331.168 135.823 331.091C135.634 331.032 134.396 330.918 133.072 330.838L130.665 330.69L130.635 335.971C130.595 343.019 130.428 344.526 129.678 344.633C128.741 344.767 128.363 343.958 128.115 341.291C127.987 339.908 127.819 329.661 127.741 318.521C127.621 301.15 127.664 297.625 128.046 293.771C128.321 291.004 128.645 289.042 128.891 288.667C129.11 288.332 129.289 287.645 129.289 287.14C129.289 285.782 130.535 283.525 131.995 282.239ZM100.701 284.706C102.668 282.73 106.064 280.809 108.381 280.362C113.15 279.444 118.46 281.028 121.801 284.368C123.254 285.82 123.3 285.912 123.167 287.092C123.091 287.764 123.124 288.314 123.241 288.314C123.653 288.314 123.809 289.283 124.192 294.204C124.884 303.085 125.2 313.19 125.25 328.051C125.296 341.779 125.149 346.296 124.629 347.137C124.305 347.66 121.464 347.854 114.433 347.832C108.041 347.812 99.1268 347.293 98.0321 346.877C97.6896 346.747 97.2921 346.418 97.1485 346.146C96.3308 344.597 95.5974 323.162 95.8095 307.014C95.9572 295.758 96.1644 292.932 96.927 291.768C97.1741 291.391 97.376 290.762 97.376 290.369C97.376 289.065 98.8346 286.581 100.701 284.706ZM109.498 284.959C109.312 284.126 109.352 283.92 109.72 283.822C109.967 283.757 110.606 283.688 111.14 283.671L112.111 283.639L112.002 293.341C111.909 301.633 111.951 303.092 112.297 303.379C112.878 303.86 116.338 304.061 119.428 303.793L122.084 303.562L122.233 304.479C122.492 306.075 122.447 306.095 118.202 306.272C113.242 306.478 112.309 306.729 112.09 307.917C112.001 308.404 111.965 312.54 112.011 317.111C112.087 324.652 112.14 325.465 112.585 325.911C113.009 326.334 113.595 326.401 116.85 326.401C118.925 326.401 121.026 326.312 121.517 326.202L122.411 326.003V328.378L118.434 328.55C113.854 328.748 112.653 329.094 112.392 330.294C112.298 330.725 112.193 334.201 112.158 338.02L112.095 344.963L99.1642 344.964L99.2594 337.883C99.3119 333.988 99.3738 330.791 99.397 330.779C99.4203 330.767 101.509 330.813 104.039 330.88L108.639 331.003L108.633 335.472C108.627 339.579 108.728 341.393 109.094 343.795C109.281 345.015 110.168 345.039 110.409 343.829C110.648 342.636 110.587 333.052 110.33 331.238C109.979 328.769 109.655 328.634 104.529 328.821C102.184 328.907 100.057 329.057 99.8033 329.155C99.4272 329.3 99.3075 329.103 99.156 328.093C99.0536 327.411 99.0388 326.742 99.1227 326.606C99.2126 326.46 100.043 326.459 101.146 326.603C103.271 326.881 108.48 326.652 109.236 326.248C110.204 325.73 110.37 324.029 110.255 315.814C110.161 309.165 110.075 307.846 109.685 307.116C109.123 306.062 108.76 305.912 106.776 305.918C105.055 305.924 100.467 306.368 99.419 306.631C98.7739 306.793 98.7515 306.749 98.7515 305.303V303.808L100.609 304.06C103.584 304.463 108.668 304.224 109.562 303.639L110.306 303.151L110.304 297.864C110.301 292.666 109.945 286.961 109.498 284.959ZM130.525 288.241C130.826 288.08 132.003 286.978 133.138 285.792C134.274 284.607 135.359 283.637 135.548 283.638C135.816 283.639 135.892 285.576 135.892 292.404V301.17L133.209 301.435C131.734 301.581 130.465 301.648 130.39 301.584C130.314 301.52 130.19 298.558 130.114 295.001C129.982 288.751 129.995 288.524 130.525 288.241ZM114.158 293.149C114.158 288.548 114.083 284.588 113.991 284.349C113.899 284.11 113.903 283.914 114 283.914C114.375 283.914 116.992 285.354 119.01 286.671C120.173 287.43 121.432 288.128 121.809 288.223L122.494 288.394L122.316 292.685C122.218 295.045 122.138 297.997 122.137 299.245L122.136 301.514H114.158V293.149ZM100.943 289.428C102.341 287.371 103.948 285.96 106.002 284.989C107.829 284.125 108.552 283.974 108.19 284.533C108.068 284.722 107.906 288.713 107.83 293.401L107.693 301.926L103.298 302.117C100.881 302.221 98.8676 302.272 98.8247 302.229C98.7818 302.186 98.6668 299.857 98.5692 297.054L98.3917 291.957L99.1422 291.466C99.5549 291.195 100.365 290.278 100.943 289.428ZM34.4213 294.91C30.9879 294.904 26.3968 293.709 26.3968 292.821C26.3968 292.329 26.5451 292.336 29.9141 292.99C31.4705 293.292 33.8538 293.539 35.2101 293.539C37.4465 293.539 37.6765 293.587 37.6765 294.059C37.6765 294.781 37.1653 294.914 34.4213 294.91ZM142.082 307.63L146.209 307.367C148.478 307.223 150.532 307.084 150.773 307.059C151.161 307.019 151.232 307.959 151.4 315.301C151.504 319.859 151.554 323.625 151.51 323.669C151.466 323.713 149.43 323.789 146.987 323.838L142.544 323.926L142.382 320.076C142.293 317.959 142.189 314.292 142.151 311.928L142.082 307.63ZM130.577 316.153C130.481 311.54 130.449 307.69 130.506 307.596C130.564 307.503 131.813 307.488 133.283 307.564L135.956 307.701L135.909 315.943C135.884 320.476 135.838 324.203 135.808 324.226C135.778 324.249 134.629 324.329 133.253 324.404L130.752 324.54L130.577 316.153ZM99.2663 324.626C99.1711 324.543 99.0077 320.722 98.9032 316.133L98.7133 307.79L99.3513 308.017C99.7023 308.142 101.745 308.213 103.89 308.173C106.036 308.135 107.861 308.216 107.946 308.354C108.032 308.492 108.021 312.196 107.922 316.585L107.743 324.565L103.591 324.67C101.308 324.728 99.3615 324.708 99.2663 324.626ZM114.335 320.376C114.238 318.121 114.158 314.502 114.158 312.333V308.389H122.411V324.31L114.512 324.476L114.335 320.376ZM114.44 330.957L117.532 330.869C119.232 330.821 121.006 330.755 121.474 330.723L122.325 330.664L122.506 334.833C122.605 337.125 122.686 340.343 122.686 341.983V344.964H114.456L114.44 330.957ZM142.678 340.22C142.581 337.611 142.419 334.455 142.319 333.208L142.138 330.939H151.524L151.677 333.208C151.761 334.455 151.89 337.691 151.963 340.397L152.096 345.317L150.005 345.141C148.855 345.043 146.776 344.964 145.385 344.964H142.856L142.678 340.22ZM212.93 338.914C207.682 338.914 203.208 337.745 206.321 337.187C206.699 337.119 209.113 337.047 211.685 337.027C216.845 336.986 217.687 337.186 218.819 338.727C219.307 339.391 219.401 339.98 219.475 342.852C219.545 345.566 219.479 346.306 219.131 346.751C218.717 347.28 218.686 347.282 218.313 346.802C217.889 346.255 217.325 343.436 217.325 341.86C217.325 340.541 216.866 339.593 216.044 339.219C215.675 339.051 214.274 338.914 212.93 338.914ZM209.622 350.497C209.622 350.349 209.901 350.173 210.241 350.108C210.581 350.042 213.371 349.972 216.44 349.951C221.29 349.919 222.041 349.97 222.186 350.348C222.482 351.118 221.594 351.6 219.369 351.876C215.767 352.323 209.622 351.453 209.622 350.497ZM154.269 352.37C154.465 352.204 154.96 351.887 155.369 351.667C156.256 351.188 157.871 351.359 159.265 352.078C162.128 353.554 162.244 359.2 159.455 361.308C158.161 362.286 156.489 362.658 155.164 362.261C150.937 360.995 149.599 355.506 152.977 353.287C153.491 352.95 154.072 352.537 154.269 352.37ZM157.987 358.217C155.765 360.536 152.329 357.098 153.877 354.105C154.3 353.289 154.357 353.267 155.352 353.54C156.995 353.991 157.86 354.537 158.309 355.405C158.913 356.573 158.825 357.343 157.987 358.217ZM388.601 359.599C387.467 359.279 387.413 358.777 388.498 358.618C388.999 358.545 392.008 358.565 395.186 358.662C403.012 358.901 410.692 358.871 413.275 358.591L415.407 358.359V361.134L411.899 361.336C409.97 361.448 406.534 361.467 404.265 361.379C400.355 361.227 390.34 360.089 388.601 359.599ZM398.324 369.301C398.47 364.511 398.584 363.371 398.991 362.615C399.262 362.114 399.63 361.753 399.81 361.812C400.248 361.957 400.611 367.943 400.465 372.601C400.304 377.745 399.095 380.989 397.339 380.989C396.987 380.989 396.699 380.896 396.699 380.782C396.699 380.668 397.025 379.338 397.424 377.826C398.052 375.443 398.172 374.305 398.324 369.301ZM101.178 367.212C100.544 366.873 100.535 366.249 101.159 365.886C101.678 365.584 105.583 365.566 112.759 365.833L117.275 366.001L117.61 367.651C118.794 373.488 119.254 383.035 119.213 400.955C119.177 416.758 119.084 418.114 118.034 418.114C116.936 418.114 116.84 416.837 116.622 399.276C116.507 390.05 116.32 379.346 116.206 375.489L116 368.476L113.085 368.566C110.105 368.658 102.2 367.759 101.178 367.212ZM134.507 366.313C134.708 366.112 136.836 365.946 140.513 365.845C150.252 365.576 151.1 365.544 151.655 365.932C151.72 365.978 151.781 366.029 151.851 366.086C152.383 366.516 152.515 367.044 152.831 370.005C153.486 376.124 154.055 392.617 154.052 405.351C154.05 416.805 154.075 420.093 152.601 421.035C151.982 421.431 151.098 421.414 149.838 421.414C146.091 421.414 138.522 420.465 133.056 419.31C132.631 419.22 132.111 418.882 131.899 418.559C131.174 417.454 130.883 409.746 130.883 391.714C130.883 373.406 131.124 368.476 132.02 368.476C132.236 368.476 132.496 368.786 132.597 369.164C132.698 369.542 132.866 374.987 132.971 381.264C133.076 387.541 133.283 395.832 133.432 399.689C133.581 403.546 133.716 409.279 133.732 412.43C133.762 418.147 133.764 418.159 134.346 417.941C135.274 417.594 141.704 417.667 146.291 418.077C148.606 418.284 150.551 418.403 150.613 418.34C150.675 418.279 150.762 407.034 150.806 393.352L150.885 368.476L143.457 368.436C139.372 368.414 135.658 368.282 135.204 368.143C134.317 367.87 133.939 366.88 134.507 366.313ZM98.2706 412.737C97.8896 406.346 97.9309 367.572 98.3196 366.483C98.5815 365.749 98.8286 365.706 99.3288 366.309C100.091 367.227 100.782 387.311 100.618 403.814C100.55 410.696 100.536 416.452 100.587 416.605C100.646 416.783 102.117 416.847 104.638 416.781C108.936 416.67 113.107 417.087 114.089 417.725C114.767 418.165 114.894 418.918 114.378 419.434C113.796 420.015 107.098 419.72 101.021 418.844L98.614 418.497L98.2706 412.737ZM380.467 383.592C380.467 383.089 381.074 382.681 382.277 382.376C382.895 382.22 385.236 382.162 387.758 382.242C390.179 382.318 396.802 382.495 402.476 382.634C408.151 382.774 413.381 382.972 414.1 383.076C415.351 383.256 415.407 383.301 415.407 384.154C415.407 384.932 415.298 385.067 414.547 385.217C412.597 385.607 397.909 385.181 391.61 384.552C390.096 384.401 386.97 384.199 384.663 384.102C381.639 383.976 380.467 383.834 380.467 383.592ZM203.616 408.192C201.357 407.869 200.858 407.574 201.175 406.748C201.327 406.351 202.857 406.36 215.262 406.831C221.786 407.079 223.058 407.295 223.293 408.196C223.521 409.067 225.429 409.291 235.208 409.589C240.277 409.744 247.086 409.991 250.339 410.139C253.592 410.287 257.863 410.48 259.83 410.568C265.242 410.809 282.433 411.991 289.556 412.611C293.028 412.914 301.503 413.596 308.388 414.127C324.367 415.359 345.218 417.435 347.316 418.002C350.037 418.737 350.135 419.489 347.512 419.489C345.537 419.489 338.546 418.937 331.992 418.264C328.038 417.858 318.864 417.109 308.388 416.336C305.286 416.107 298.662 415.61 293.669 415.231C288.676 414.851 281.434 414.352 277.575 414.122C273.717 413.891 267.898 413.516 264.645 413.29C261.392 413.063 255.016 412.695 250.476 412.471C240.513 411.979 237.88 411.73 231.631 410.686C227.639 410.018 226.041 409.882 222.277 409.889C218.132 409.896 212.26 409.45 207.696 408.782C206.713 408.638 204.876 408.372 203.616 408.192ZM59.1466 412.03C56.711 411.693 54.7695 410.924 53.8663 409.941L53.2204 409.237L54.3208 409.404C54.9261 409.496 56.903 409.708 58.7141 409.876C60.5252 410.044 62.1038 410.241 62.2218 410.314C62.3401 410.387 62.4366 410.796 62.4366 411.223C62.4366 412.243 61.8044 412.398 59.1466 412.03ZM177.653 420.925C176.334 420.146 176.409 419.691 177.937 419.188C178.976 418.846 185.329 419.137 187.842 419.642C189.989 420.074 190.914 420.683 190.914 421.664C190.914 422.556 190.307 422.789 187.973 422.789C185.365 422.789 178.803 421.603 177.653 420.925ZM370.889 420.793C370.952 420.36 371.284 420.099 372.077 419.861C373.557 419.417 375.168 419.423 380.055 419.89C385.598 420.42 394.417 421.138 407.291 422.107C410.317 422.335 413.381 422.593 414.1 422.681L415.407 422.84V424.349C415.407 425.848 415.402 425.856 414.65 425.706C413.805 425.538 410.03 425.21 401.651 424.579C393.652 423.976 391.999 423.815 380.33 422.493C377.606 422.184 374.635 421.869 373.727 421.794C371.072 421.571 370.791 421.472 370.889 420.793Z" fill="#2C2C28"/>
</svg>
