<svg width="23" height="32" viewBox="0 0 23 32" fill="none" xmlns="http://www.w3.org/2000/svg">
<path d="M9.68408 1.34555C9.53452 1.86901 9.53452 4.41153 9.64669 6.95404C9.83364 11.5904 9.83364 11.5904 6.01986 7.62706C3.17822 4.67326 2.05652 3.73851 1.57045 3.92545C0.336586 4.41153 0.972215 5.79495 4.11297 9.42178C7.25373 13.0112 7.25373 13.0112 5.68335 13.273C1.19656 13.9834 -0.0373139 14.7312 1.00961 16.0024C1.38351 16.4511 2.16869 16.5259 5.30945 16.3389C7.44068 16.2268 9.16062 16.1894 9.16062 16.2642C9.16062 16.3389 8.22587 18.3206 7.06678 20.7136C5.8703 23.1065 5.04772 25.2752 5.15989 25.5743C5.64596 26.8081 6.54332 26.0977 8.37543 23.1439C10.544 19.6293 10.2823 19.3301 11.0675 26.8455C11.5162 31.2949 12.077 32.6036 13.124 31.7436C13.5352 31.4071 13.6474 30.0237 13.6474 25.6491C13.6474 20.0032 13.6474 20.0032 16.7508 23.1065C19.8168 26.1725 20.8263 26.7334 21.275 25.5743C21.4993 24.9386 19.2559 21.9474 15.4421 17.7224C13.2361 15.3294 13.2361 15.5164 15.6291 14.9555C20.7141 13.759 22.2845 13.086 22.1723 12.2261C22.0602 11.4035 18.0594 11.1417 15.2552 11.7774C14.5074 11.9643 14.5448 11.74 16.003 8.18791C17.3864 4.78542 17.4612 4.41153 16.9377 3.85068C16.1152 3.02809 15.6665 3.43939 14.2457 6.28102C12.8248 9.08527 13.0492 9.49656 12.264 2.99071C11.9275 0.186456 10.2449 -0.897854 9.68408 1.34555Z" fill="black"/>
</svg>
