<svg width="355" height="504" viewBox="0 0 355 504" fill="none" xmlns="http://www.w3.org/2000/svg">
<path d="M143.617 0.690737C141.589 1.10611 140.905 2.08345 140.539 4.99104C140.05 8.87598 141.003 10.3909 146.256 14.1292C149.799 16.6459 150.214 17.2567 150.654 20.3598C151.461 26.0284 153.464 27.2745 159.426 25.784C164.337 24.5135 171.472 20.2865 169.761 19.6268C169.59 19.5779 168.393 20.2376 167.074 21.0928C161.552 24.7334 155.199 26.1994 153.22 24.2936C152.389 23.4873 152.096 22.681 151.876 20.6285C151.485 16.8658 150.825 15.9129 146.818 13.103C142.274 9.95106 141.247 8.50948 141.589 5.74848C141.76 4.47794 141.809 4.40464 142.176 4.79557C143.3 5.91952 144.546 6.16385 150.41 6.35932C156.836 6.57922 159.182 6.84799 162.333 7.67873C165.803 8.58278 172.254 11.0995 172.62 11.6859C172.889 12.1012 173.744 12.0035 173.915 11.5393C175.21 8.16741 150.41 -0.72641 143.617 0.690737ZM151.68 2.57212C157.447 3.84266 167.953 7.4344 168.491 8.28957C168.564 8.41174 167.367 8.06967 165.852 7.55657C161.21 5.96839 158.986 5.62631 151.876 5.33311C144.79 5.03991 143.373 4.77114 142.713 3.59833C141.614 1.59478 145.45 1.17941 151.68 2.57212Z" fill="black"/>
<path d="M207.952 0.617372C197.128 1.93679 180.366 8.85149 181.393 11.5392C181.564 12.0034 182.419 12.1011 182.688 11.6858C183.054 11.0994 189.505 8.58272 192.974 7.67867C196.126 6.84793 198.472 6.57916 204.898 6.35926C210.762 6.16379 212.008 5.91946 213.132 4.79551C213.498 4.40458 213.547 4.47788 213.718 5.74842C214.06 8.50942 213.034 9.951 208.489 13.1029C204.482 15.9128 203.823 16.8657 203.432 20.6284C203.212 22.6809 202.919 23.4872 202.088 24.2935C200.109 26.1993 193.756 24.7333 188.234 21.0927C186.915 20.2375 185.717 19.5778 185.546 19.6267C183.836 20.2864 190.971 24.5134 195.882 25.7839C201.844 27.2744 203.847 26.0283 204.653 20.3597C205.093 17.2566 205.509 16.6458 209.051 14.1291C214.744 10.0731 215.868 7.67867 214.402 2.79196C213.889 1.10605 211.25 0.226436 207.952 0.617372ZM212.448 2.15669C214.647 3.96477 211.641 5.01542 203.31 5.33305C196.322 5.62625 194.098 5.96833 189.456 7.55651C185.913 8.75375 186.108 8.43611 189.944 6.8235C198.496 3.20733 210.664 0.690671 212.448 2.15669Z" fill="black"/>
<path d="M68.9493 7.31366C60.2754 9.14618 64.7711 15.1569 76.1816 16.9894C79.3091 17.4781 79.2847 17.4536 77.33 19.3839C72.3456 24.3683 67.6054 25.0036 38.5051 24.6615C7.66991 24.295 -3.12973 42.5225 10.1621 72.5513C13.4851 80.0768 13.5095 80.1257 11.9213 79.7104C7.32784 78.5375 3.93157 81.2252 4.22477 85.7943C4.76231 94.004 14.3158 92.88 14.9022 84.5482C15.0488 82.4958 15.0488 82.4958 16.1972 83.6197C23.8938 91.0964 24.6757 105.586 18.3474 122.298C11.506 140.306 9.69789 147.221 8.10971 161.368C5.81296 181.843 6.61926 196.43 11.9946 232.396C15.733 257.489 16.4904 265.626 16.4904 281.092C16.4904 298.562 14.8778 313.491 11.9702 322.825C10.7241 326.856 11.0417 326.563 9.28252 325.439C4.39581 322.287 0.462004 323.973 0.437571 329.226C0.413137 336.727 6.717 337.216 10.5286 329.984C11.2861 328.566 11.2616 328.566 12.5566 330.399C17.8343 337.827 17.5655 342.665 10.6752 366.17C4.66458 386.669 4.00487 390.872 4.24921 406.778C4.81118 442.598 7.64547 462.145 13.6073 471.747C14.7312 473.506 14.7312 473.506 13.6073 474.752C6.13059 483.084 11.115 493.835 24.5291 498.306C33.4229 501.263 40.7041 500.799 54.2403 496.449C69.2425 491.636 72.7365 491.807 85.5641 497.94C100.078 504.903 117.914 505.246 128.665 498.771C130.058 497.94 130.058 497.94 131.059 498.526C135.067 500.872 147.601 502.436 147.601 500.628C147.601 500.163 147.43 500.139 145.231 500.139C140.76 500.115 135.628 499.21 132.77 497.94C131.255 497.256 131.255 497.256 132.892 495.57C136.923 491.441 136.875 486.676 132.819 486.7C127.956 486.725 125.195 493.004 128.469 496.523C130.204 498.355 118.965 501.727 110.071 502.02C100.688 502.338 95.2154 501.116 85.9306 496.694C73.3473 490.659 68.7783 490.414 55.0222 494.861C41.7303 499.186 35.3043 499.87 27.2412 497.818C13.3874 494.299 7.27897 483.695 14.438 475.632C15.4642 474.484 15.4642 474.484 17.0035 475.925C22.1346 480.714 29.0737 479.224 28.2918 473.482C27.7054 469.084 22.1346 468.278 16.9791 471.82C15.6108 472.749 15.4153 472.602 13.705 469.328C9.64902 461.534 7.69434 451.052 6.52153 430.748C4.51798 396.199 4.93335 390.139 10.8951 369.908C19.1537 341.907 19.398 336.116 12.7765 328.615C11.7992 327.491 11.7992 327.491 12.7277 324.706C16.5393 313.222 18.5428 291.281 17.6144 271.074C17.1013 260.397 16.1239 251.576 13.2408 232.201C8.23188 198.556 7.32784 185.997 8.72055 168.209C9.91779 152.474 12.1901 142.065 17.3945 128.358C22.9653 113.624 23.7961 110.35 23.7961 102.849C23.8205 93.5153 20.9129 85.6233 16.0995 81.8849C14.8045 80.8831 14.6579 80.6388 14.0471 78.8063C13.6806 77.7312 12.3612 74.506 11.1395 71.6961C0.290969 47.0182 6.717 29.7926 28.1208 26.2008C30.9307 25.7366 37.3323 25.6633 50.3553 25.981C67.41 26.3963 75.5464 24.4172 79.3091 18.9196C80.262 17.5514 80.262 17.5514 81.386 17.6735C96.7791 19.6526 123.754 16.7451 130.742 12.3959C131.939 11.6384 131.133 10.7588 129.911 11.4674C123.534 15.2546 102.277 17.8446 86.1505 16.8428C80.2376 16.4763 80.653 16.6229 80.653 14.8148C80.6285 9.92807 74.6912 6.11642 68.9493 7.31366ZM72.932 8.55978C77.1834 9.34164 80.1399 12.4936 79.4802 15.5234C79.0648 17.3559 67.5077 14.0574 66.1394 11.7362C64.8933 9.586 68.7538 7.77792 72.932 8.55978ZM12.7032 81.2985C14.3403 82.0804 13.9005 86.7228 12.0191 88.7508C9.28252 91.7317 5.42202 89.777 5.39758 85.4278C5.39758 81.5184 8.98932 79.466 12.7032 81.2985ZM7.0835 325.586C9.79563 326.685 10.3332 327.565 9.40469 329.397C6.37493 335.432 1.65925 335.335 1.65925 329.226C1.63482 325.781 3.85827 324.291 7.0835 325.586ZM25.2621 471.185C28.8538 472.944 26.8258 478.124 22.7698 477.562C20.864 477.294 16.637 474.655 16.637 473.726C16.637 472.187 23.283 470.232 25.2621 471.185ZM134.162 488.411C135.36 489.608 134.309 492.442 131.744 494.935C129.984 496.669 129.887 496.669 128.763 494.837C126.759 491.587 131.597 485.845 134.162 488.411Z" fill="black"/>
<path d="M282.596 7.21576C277.929 7.94876 274.655 11.0518 274.655 14.8146C274.655 16.6227 275.07 16.4761 269.157 16.8426C253.031 17.8444 231.774 15.2544 225.397 11.4672C224.175 10.7586 223.369 11.6382 224.566 12.3957C231.554 16.7449 258.529 19.6524 273.922 17.6733C275.046 17.5512 275.046 17.5512 275.999 18.9194C279.762 24.417 287.898 26.3961 304.953 25.9808C317.976 25.6631 324.377 25.7364 327.187 26.2006C348.591 29.7924 355.017 47.018 344.169 71.6959C342.947 74.5058 341.627 77.731 341.261 78.8061C340.65 80.6386 340.503 80.8829 339.208 81.8847C334.395 85.6231 331.487 93.5151 331.512 102.848C331.512 110.349 332.343 113.623 337.914 128.357C343.118 142.064 345.39 152.473 346.587 168.208C347.98 185.996 347.076 198.555 342.067 232.2C339.184 251.575 338.207 260.396 337.694 271.073C336.765 291.28 338.769 313.221 342.58 324.705C343.509 327.49 343.509 327.491 342.531 328.615C335.91 336.116 336.154 341.907 344.413 369.908C349.055 385.692 349.788 390.334 349.788 403.87C349.764 412.568 349.642 416.258 348.786 430.747C347.614 451.051 345.659 461.533 341.603 469.327C339.893 472.601 339.697 472.748 338.329 471.819C333.173 468.277 327.603 469.083 327.016 473.481C326.234 479.223 333.173 480.713 338.304 475.924C339.844 474.483 339.844 474.484 340.87 475.632C348.029 483.694 341.921 494.298 328.067 497.817C320.004 499.869 313.578 499.185 300.286 494.86C286.53 490.413 281.961 490.658 269.377 496.693C260.093 501.115 254.619 502.338 245.237 502.02C236.343 501.727 225.104 498.354 226.839 496.522C230.113 493.003 227.352 486.724 222.489 486.699C218.433 486.675 218.384 491.44 222.416 495.569C224.053 497.255 224.053 497.255 222.538 497.939C219.679 499.209 214.548 500.114 210.102 500.138C207.878 500.138 207.707 500.163 207.707 500.628C207.707 502.436 220.241 500.871 224.249 498.525C225.25 497.939 225.25 497.939 226.643 498.77C237.394 505.245 255.23 504.902 269.744 497.939C282.571 491.806 286.065 491.635 301.068 496.448C314.604 500.798 321.885 501.262 330.779 498.305C344.193 493.834 349.177 483.083 341.701 474.751C340.577 473.505 340.577 473.505 341.701 471.746C347.663 462.144 350.497 442.597 351.059 406.777C351.303 390.871 350.643 386.668 344.633 366.169C337.742 342.664 337.474 337.826 342.751 330.374C344.046 328.565 344.022 328.565 344.779 329.983C348.591 337.215 354.895 336.726 354.87 329.225C354.846 323.972 350.912 322.286 346.025 325.438C344.266 326.562 344.584 326.855 343.338 322.824C340.43 313.49 338.818 298.561 338.818 281.091C338.818 265.625 339.575 257.488 343.313 232.395C348.689 196.404 349.495 181.842 347.198 161.367C345.61 147.22 343.802 140.305 336.961 122.297C330.632 105.585 331.414 91.0962 339.111 83.6195C340.259 82.4956 340.259 82.4956 340.406 84.548C340.992 92.8798 350.546 94.0038 351.083 85.7941C351.376 81.225 347.98 78.5373 343.387 79.7102C341.798 80.1255 341.823 80.0766 345.146 72.5511C358.438 42.5223 347.638 24.2948 316.803 24.6613C287.703 25.0034 282.962 24.3681 277.978 19.3837C276.023 17.4534 275.999 17.4779 279.126 16.9892C287.385 15.6698 291.832 12.8844 290.415 9.90344C289.486 7.97321 285.87 6.72708 282.596 7.21576ZM287.678 9.09714C292.125 11.1251 287.898 14.2771 278.687 15.8164C275.999 16.2806 275.999 16.2806 275.828 15.5232C274.802 10.7586 282.376 6.65378 287.678 9.09714ZM347.003 80.8829C351.254 82.3245 350.692 90.1433 346.343 90.1433C343.118 90.1433 339.697 83.4729 341.945 81.5915C342.922 80.8096 345.586 80.4187 347.003 80.8829ZM352.109 325.682C354.895 327.637 353.698 333.99 350.546 333.99C347.882 333.99 344.34 328.175 346.196 326.831C348.762 324.949 350.595 324.607 352.109 325.682ZM335.739 471.746C338.842 473.237 339.013 473.554 337.449 474.996C333.296 478.807 327.871 478.197 328.238 473.97C328.507 470.891 331.878 469.889 335.739 471.746ZM224.908 488.826C227.474 490.634 227.791 494.055 225.592 496.059C224.566 496.987 220.657 492.05 220.657 489.827C220.657 487.799 222.734 487.311 224.908 488.826Z" fill="black"/>
<path d="M173.255 13.1035C170.738 14.0319 171.203 16.7929 174.428 20.3114C175.405 21.362 176.407 22.657 176.676 23.1945C176.993 23.8298 177.335 24.1719 177.653 24.1719C177.971 24.1719 178.313 23.8298 178.63 23.1945C178.899 22.657 179.901 21.362 180.878 20.3114C185.521 15.2536 183.59 10.3913 178.459 14.3007C177.653 14.9116 177.653 14.9116 176.847 14.3007C175.454 13.2256 174.11 12.7858 173.255 13.1035ZM174.819 14.3984C175.161 14.5206 175.943 15.0826 176.554 15.6446C177.653 16.6708 177.653 16.6708 178.753 15.6446C182.686 12.0284 183.981 15.1559 180.243 19.2363C179.412 20.1403 178.508 21.191 178.215 21.6064C177.653 22.3394 177.653 22.3394 177.116 21.6064C176.798 21.191 175.894 20.1403 175.063 19.2363C172.131 16.0355 171.984 13.3234 174.819 14.3984Z" fill="black"/>
<path d="M163.287 13.4451C159.793 14.0315 158.742 15.7174 161.21 16.768C162.725 17.4033 168.613 16.9391 169.42 16.1328C170.128 15.4242 169.175 15.302 166.561 15.7418C164.044 16.1572 162.065 16.1083 161.283 15.6197C160.501 15.131 162.749 14.569 165.877 14.4469C168.907 14.3491 169.811 14.0071 168.833 13.3962C168.418 13.1274 165.022 13.1519 163.287 13.4451Z" fill="black"/>
<path d="M186.475 13.3713C185.546 14.031 186.402 14.3487 189.431 14.4464C192.559 14.5686 194.807 15.1306 194.025 15.6192C193.243 16.1079 191.264 16.1568 188.747 15.7414C185.131 15.1306 184.251 15.9857 187.721 16.7432C192.29 17.7205 196.395 16.6454 195.173 14.7885C194.44 13.689 187.648 12.5895 186.475 13.3713Z" fill="black"/>
<path d="M173.279 23.0241C173.133 23.1707 173.01 23.5128 173.01 23.806C173.01 26.8846 169.663 33.3351 166.365 36.5603C159.474 43.3529 155.98 43.6216 146.989 37.9775C139.194 33.0908 134.43 33.0908 124.143 37.9775C117.326 41.2516 114.785 41.6669 111.56 40.0788C109.337 38.9793 108.286 39.4191 110.167 40.6652C113.759 43.0352 117.106 42.6443 124.876 38.9548C134.845 34.2147 139.097 34.2147 146.378 38.9548C156.176 45.332 163.384 43.8904 170.03 34.1658C173.01 29.7922 175.698 20.6052 173.279 23.0241Z" fill="black"/>
<path d="M181.343 22.9253C179.877 23.8538 183.908 32.9919 187.402 36.7303C194.683 44.4513 199.692 44.9644 208.928 38.9537C216.209 34.2136 220.461 34.2136 230.43 38.9537C238.199 42.6432 241.547 43.0341 245.139 40.6641C247.02 39.4179 245.969 38.9781 243.746 40.0777C240.521 41.6658 237.98 41.2505 231.163 37.9764C220.876 33.0897 216.112 33.0897 208.317 37.9764C199.326 43.6205 195.832 43.3518 188.941 36.5592C185.643 33.3096 182.295 26.8835 182.295 23.7805C182.295 23.1208 181.782 22.6565 181.343 22.9253Z" fill="black"/>
<path d="M167.88 23.5376C167.88 28.1067 160.159 35.9499 153.757 37.8557C152.56 38.2222 152.169 38.5887 152.487 39.0774C153.317 40.4212 160.696 36.0476 164.752 31.7962C168.148 28.2044 170.299 22.9512 168.344 22.9512C168.026 22.9512 167.88 23.1223 167.88 23.5376Z" fill="black"/>
<path d="M186.327 23.1943C185.179 25.0757 189.577 31.6727 194.463 35.3378C197.689 37.7567 202.355 39.8335 202.82 39.0761C203.137 38.5874 202.746 38.2209 201.549 37.8544C195.147 35.9486 187.426 28.1054 187.426 23.5363C187.426 22.9255 186.645 22.6812 186.327 23.1943Z" fill="black"/>
<path d="M104.11 34.8011C103.866 35.0943 103.89 35.4608 104.183 36.6336C104.379 37.44 104.526 38.0997 104.477 38.0997C104.452 38.0997 103.67 37.8309 102.766 37.4644C98.7348 35.9739 98.8325 38.4417 102.962 42.4977C108.63 48.093 114.714 48.2152 126.613 42.9619C132.111 40.5186 133.015 40.4941 139.441 42.5221C143.131 43.6949 146.967 44.1103 147.577 43.4017C148.091 42.742 147.651 42.4244 146.478 42.6199C145.134 42.8153 143.277 42.4733 139.246 41.2516C132.844 39.3458 131.793 39.3946 126.223 41.8869C114.006 47.36 107.36 46.798 102.18 39.8589C100.714 37.9042 100.689 37.9286 102.766 38.7105C105.503 39.7611 106.114 39.3702 105.454 37.0001C105.259 36.2916 105.259 36.2916 106.578 37.3911C108.362 38.906 108.875 39.1747 109.241 38.7105C109.461 38.4417 109.412 38.2707 108.948 37.9042C104.501 34.1659 104.599 34.2147 104.11 34.8011Z" fill="black"/>
<path d="M248.731 35.9253C247.729 36.756 246.678 37.6356 246.361 37.9044C245.896 38.2709 245.848 38.4419 246.068 38.7107C246.434 39.1749 246.947 38.9062 248.731 37.3913C250.05 36.2918 250.05 36.2918 249.855 37.0004C249.195 39.3704 249.806 39.7613 252.542 38.7107C254.619 37.9288 254.595 37.9044 253.129 39.8591C247.949 46.7982 241.303 47.3602 229.086 41.8871C223.515 39.3948 222.465 39.346 216.063 41.2518C212.032 42.4735 210.175 42.8155 208.831 42.6201C207.658 42.4246 207.218 42.7422 207.731 43.4019C208.342 44.1105 212.178 43.6951 215.868 42.5223C222.294 40.4944 223.198 40.5188 228.695 42.9621C240.594 48.2154 246.678 48.0932 252.347 42.4979C256.476 38.4419 256.574 35.9741 252.542 37.4646C251.638 37.8311 250.856 38.0999 250.832 38.0999C250.783 38.0999 250.93 37.4402 251.125 36.6338C251.418 35.461 251.443 35.0945 251.199 34.8013C250.759 34.2638 250.685 34.2882 248.731 35.9253Z" fill="black"/>
</svg>
